<?xml version="1.0" encoding="UTF-8" standalone="no"?>
<!DOCTYPE svg PUBLIC "-//W3C//DTD SVG 1.1//EN" "http://www.w3.org/Graphics/SVG/1.1/DTD/svg11.dtd">
<svg version="1.1" xmlns="http://www.w3.org/2000/svg" xmlns:xlink="http://www.w3.org/1999/xlink" preserveAspectRatio="xMidYMid meet" viewBox="0 0 640 640" width="640" height="640"><defs><path d="M599 320C599 478.68 470.18 607.5 311.5 607.5C152.82 607.5 24 478.68 24 320C24 161.32 152.82 32.5 311.5 32.5C470.18 32.5 599 161.32 599 320Z" id="etotuKH7l"></path><path d="M484 449.5C479.57 406.15 470.1 362.22 455.6 317.72C442.09 276.24 424.1 234.12 401.65 191.35C399.66 187.56 394.25 187.51 392.19 191.27C373.97 224.43 357.01 261.58 341.29 302.72C325.4 344.33 310.82 390.04 297.57 439.84C296.98 442.07 293.75 441.92 293.37 439.63C285.18 389.92 273.69 344.28 258.91 302.72C244.26 261.55 226.4 224.29 205.34 190.95C202.93 187.13 197.31 187.27 195.09 191.21C176.34 224.43 159.96 261.6 145.95 302.72C130.78 347.22 118.46 396.15 109 449.5" id="b7c15OF0ns"></path><path d="M476 333L114 338.5" id="b1eTyqkjQf"></path><path d="M476 285L114 290.5" id="c4mQjywkgn"></path></defs><g><g><g><use xlink:href="#etotuKH7l" opacity="1" fill="#ffd500" fill-opacity="1"></use><g><use xlink:href="#etotuKH7l" opacity="1" fill-opacity="0" stroke="#000000" stroke-width="13" stroke-opacity="1"></use></g></g><g><g><use xlink:href="#b7c15OF0ns" opacity="1" fill-opacity="0" stroke="#000000" stroke-width="13" stroke-opacity="1"></use></g></g><g><g><use xlink:href="#b1eTyqkjQf" opacity="1" fill-opacity="0" stroke="#000000" stroke-width="13" stroke-opacity="1"></use></g></g><g><g><use xlink:href="#c4mQjywkgn" opacity="1" fill-opacity="0" stroke="#000000" stroke-width="13" stroke-opacity="1"></use></g></g></g></g></svg>