<?xml version="1.0" encoding="UTF-8" standalone="no"?>
<!DOCTYPE svg PUBLIC "-//W3C//DTD SVG 1.1//EN" "http://www.w3.org/Graphics/SVG/1.1/DTD/svg11.dtd">
<svg version="1.1" xmlns="http://www.w3.org/2000/svg" xmlns:xlink="http://www.w3.org/1999/xlink" preserveAspectRatio="xMidYMid meet" viewBox="0 0 640 640" width="640" height="640"><defs><path d="M522.12 206.89C538.8 190.7 526.75 162.46 503.52 163.29C502.97 163.31 501.6 163.36 499.41 163.44C463.01 184.54 171.81 353.34 135.41 374.44C113.75 402.69 100.22 420.34 94.8 427.41C92.95 429.82 95.11 433.22 98.08 432.59C106.92 430.7 129.03 425.99 164.41 418.44C187.88 404.71 305.21 336.04 516.41 212.44C519.71 209.23 521.62 207.38 522.12 206.89Z" id="bb2AawVR8"></path><path d="M112.75 430L102.25 412.5" id="dbxsvBvXs"></path><path d="M498.25 226.5L471.25 181.5" id="bgy4Wuz7L"></path><path d="M140 371.5C145.14 377.17 150.13 383.92 154.97 391.76C159.8 399.59 162.81 407.5 164 415.5" id="f5TZBFpJJ"></path><path d="M522.12 206.89C538.8 190.7 526.75 162.46 503.52 163.29C502.97 163.31 501.6 163.36 499.41 163.44C463.01 184.54 171.81 353.34 135.41 374.44C113.75 402.69 100.22 420.34 94.8 427.41C92.95 429.82 95.11 433.22 98.08 432.59C106.92 430.7 129.03 425.99 164.41 418.44C187.88 404.71 305.21 336.04 516.41 212.44C519.71 209.23 521.62 207.38 522.12 206.89Z" id="e4ZmlBztE"></path></defs><g><g><g><use xlink:href="#bb2AawVR8" opacity="1" fill="#ffffff" fill-opacity="1"></use><g><use xlink:href="#bb2AawVR8" opacity="1" fill-opacity="0" stroke="#000000" stroke-width="1" stroke-opacity="0"></use></g></g><g><use xlink:href="#dbxsvBvXs" opacity="1" fill="#000000" fill-opacity="0"></use><g><use xlink:href="#dbxsvBvXs" opacity="1" fill-opacity="0" stroke="#000000" stroke-width="18" stroke-opacity="1"></use></g></g><g><use xlink:href="#bgy4Wuz7L" opacity="1" fill="#000000" fill-opacity="0"></use><g><use xlink:href="#bgy4Wuz7L" opacity="1" fill-opacity="0" stroke="#000000" stroke-width="12" stroke-opacity="1"></use></g></g><g><use xlink:href="#f5TZBFpJJ" opacity="1" fill="#000000" fill-opacity="0"></use><g><use xlink:href="#f5TZBFpJJ" opacity="1" fill-opacity="0" stroke="#000000" stroke-width="13" stroke-opacity="1"></use></g></g><g><use xlink:href="#e4ZmlBztE" opacity="1" fill="#000000" fill-opacity="0"></use><g><use xlink:href="#e4ZmlBztE" opacity="1" fill-opacity="0" stroke="#000000" stroke-width="13" stroke-opacity="1"></use></g></g></g></g></svg>