<?xml version="1.0" encoding="UTF-8" standalone="no"?>
<!DOCTYPE svg PUBLIC "-//W3C//DTD SVG 1.1//EN" "http://www.w3.org/Graphics/SVG/1.1/DTD/svg11.dtd">
<svg version="1.1" xmlns="http://www.w3.org/2000/svg" xmlns:xlink="http://www.w3.org/1999/xlink" preserveAspectRatio="xMidYMid meet" viewBox="0 0 640 640" width="640" height="640"><defs><path d="M493.5 194.5C455.65 250.54 431.99 285.56 422.53 299.57C419.29 304.37 412.63 305.36 408.14 301.71C397.01 292.67 371.99 272.33 360.86 263.29C356.23 259.53 349.43 260.2 345.62 264.79C336.19 276.13 314.81 301.87 305.38 313.21C301.39 318.02 294.55 319.29 289.09 316.25C277.17 309.6 250.83 294.9 238.91 288.25C233.37 285.16 226.45 286.22 222.09 290.82C212.01 301.44 186.81 328 146.5 370.5" id="byR1qD3Qs"></path><path d="M520.5 394.5C308.9 394.5 176.64 394.5 123.74 394.5C121.4 394.5 119.5 392.6 119.5 390.26C119.5 352.02 119.5 256.44 119.5 103.5" id="cFSguAmp7"></path></defs><g><g><g><g><use xlink:href="#byR1qD3Qs" opacity="1" fill-opacity="0" stroke="#000000" stroke-width="12" stroke-opacity="1"></use></g></g><g><g><use xlink:href="#cFSguAmp7" opacity="1" fill-opacity="0" stroke="#000000" stroke-width="12" stroke-opacity="1"></use></g></g></g></g></svg>