<?xml version="1.0" encoding="UTF-8" standalone="no"?>
<!DOCTYPE svg PUBLIC "-//W3C//DTD SVG 1.1//EN" "http://www.w3.org/Graphics/SVG/1.1/DTD/svg11.dtd">
<svg version="1.1" xmlns="http://www.w3.org/2000/svg" xmlns:xlink="http://www.w3.org/1999/xlink" preserveAspectRatio="xMidYMid meet" viewBox="0 0 640 640" width="640" height="640"><defs><path d="M599 195.5L599 437.5L437 606.5L192 606.5L26 437.5L26 195.5L192 30.5L437 30.5L599 195.5Z" id="ePorgCKaX"></path><path d="M455 383.5C455 458.01 394.51 518.5 320 518.5C245.49 518.5 185 458.01 185 383.5C185 308.99 245.49 248.5 320 248.5C394.51 248.5 455 308.99 455 383.5Z" id="ail9dJKhF"></path><path d="M286.41 549.37C276.24 564.53 267.12 583.02 259.06 604.82L381.06 604.82C374.93 583.02 366.78 564.53 356.61 549.37C352.2 542.78 347.31 537.19 341.95 532.6C329.53 521.94 311.04 522.44 299.22 533.76C294.85 537.93 290.58 543.14 286.41 549.37Z" id="fJKlvc6gd"></path><path d="M383.65 232.81C382.43 233.59 380.81 232.82 380.65 231.37C379.12 217.6 374.88 179.4 373.35 165.63C373.21 164.37 371.68 163.85 370.8 164.74C360.64 175.1 332.36 203.9 322.2 214.26C320.99 215.5 319 215.51 317.76 214.3C307.2 203.94 277.8 175.06 267.24 164.7C266.35 163.83 264.84 164.39 264.74 165.63C263.59 179.41 260.41 217.59 259.26 231.37C259.14 232.79 257.55 233.58 256.35 232.81C242.08 223.75 201.92 198.25 187.65 189.19C186.81 188.65 185.78 189.5 186.14 190.43C193.91 210.45 216.09 267.55 223.86 287.57C224.57 289.4 226.16 290.74 228.08 291.13C258.59 297.38 289.56 300.5 321 300.5C352.47 300.5 384.44 297.37 416.91 291.1C418.82 290.73 420.39 289.36 421.01 287.52C427.81 267.52 447.19 210.48 453.99 190.48C454.32 189.49 453.23 188.63 452.35 189.19C438.08 198.25 397.92 223.75 383.65 232.81Z" id="f1RF0LKR85"></path><path d="M271.55 383.5L271.55 337.26" id="b7jwh1Bldg"></path><path d="M363.55 383.5L363.55 337.26" id="fWFaw1SSH"></path><path d="M357.56 449.26C349.86 462.6 338 469.26 322 469.26C306 469.26 292.86 462.6 282.56 449.26" id="aSQIhaYft"></path></defs><g><g><g><use xlink:href="#ePorgCKaX" opacity="1" fill="#751018" fill-opacity="1"></use><g><use xlink:href="#ePorgCKaX" opacity="1" fill-opacity="0" stroke="#000000" stroke-width="13" stroke-opacity="1"></use></g></g><g><use xlink:href="#ail9dJKhF" opacity="1" fill="#ffe7aa" fill-opacity="1"></use><g><use xlink:href="#ail9dJKhF" opacity="1" fill-opacity="0" stroke="#000000" stroke-width="13" stroke-opacity="1"></use></g></g><g><use xlink:href="#fJKlvc6gd" opacity="1" fill="#42b0db" fill-opacity="1"></use><g><use xlink:href="#fJKlvc6gd" opacity="1" fill-opacity="0" stroke="#000000" stroke-width="13" stroke-opacity="1"></use></g></g><g><use xlink:href="#f1RF0LKR85" opacity="1" fill="#ffe400" fill-opacity="1"></use><g><use xlink:href="#f1RF0LKR85" opacity="1" fill-opacity="0" stroke="#000000" stroke-width="13" stroke-opacity="1"></use></g></g><g><g><use xlink:href="#b7jwh1Bldg" opacity="1" fill-opacity="0" stroke="#000000" stroke-width="18" stroke-opacity="1"></use></g></g><g><g><use xlink:href="#fWFaw1SSH" opacity="1" fill-opacity="0" stroke="#000000" stroke-width="18" stroke-opacity="1"></use></g></g><g><g><use xlink:href="#aSQIhaYft" opacity="1" fill-opacity="0" stroke="#000000" stroke-width="13" stroke-opacity="1"></use></g></g></g></g></svg>