<?xml version="1.0" encoding="UTF-8" standalone="no"?>
<!DOCTYPE svg PUBLIC "-//W3C//DTD SVG 1.1//EN" "http://www.w3.org/Graphics/SVG/1.1/DTD/svg11.dtd">
<svg version="1.1" xmlns="http://www.w3.org/2000/svg" xmlns:xlink="http://www.w3.org/1999/xlink" preserveAspectRatio="xMidYMid meet" viewBox="0 0 640 640" width="640" height="640"><defs><path d="M358.08 331.5C327.67 313.04 303.64 292.71 286 270.5L224 307.24C234.04 335.37 253.15 361.78 281.32 386.44C309.48 411.11 346.71 434.04 393 455.24L468.5 381.25C425.3 366.54 388.5 349.96 358.08 331.5Z" id="a1hpnJrwJG"></path><path d="M50 348.5C46.95 351.46 45.05 353.31 44.29 354.05C27.61 370.24 39.66 398.48 62.89 397.65C63.44 397.63 64.81 397.58 67 397.5L431 186.5C452.66 158.25 466.19 140.6 471.61 133.53C473.46 131.12 471.3 127.72 468.33 128.35C459.49 130.24 437.38 134.95 402 142.5L50 348.5Z" id="c1JyUr9p92"></path><path d="M426 183.5C420.86 177.83 415.87 171.08 411.03 163.24C406.2 155.41 403.19 147.5 402 139.5" id="c7hALWSfl"></path><path d="M269.02 269.49C276.01 282.1 287.96 293.51 304.87 303.72C305.7 304.22 305.56 305.47 304.64 305.76C275.58 315.16 252.69 316.04 235.96 308.4C218.62 300.49 207.64 283.52 203 257.5C202.2 236.59 208.47 221.14 221.81 211.14C235.14 201.14 248.87 204.59 263 221.5C259.68 240.24 261.69 256.24 269.02 269.49Z" id="i2oBZV23TI"></path><path d="M472.29 382.5C434.04 371.77 399.4 356.41 368.35 336.41C337.3 316.41 309.85 294.44 286 270.5" id="c318DIr4ne"></path><path d="M393 457.5C352.31 437.26 317.64 415.14 288.97 391.15C260.3 367.15 238.65 338.44 224 305" id="b59dE1xrP"></path><path d="M101.66 378.5L74.66 333.5" id="e1FZrjDtiZ"></path><path d="M461.16 147L450.66 129.5" id="e84hy9NyY6"></path></defs><g><g><g><use xlink:href="#a1hpnJrwJG" opacity="1" fill="#ffffff" fill-opacity="1"></use></g><g><use xlink:href="#c1JyUr9p92" opacity="1" fill="#ffffff" fill-opacity="1"></use><g><use xlink:href="#c1JyUr9p92" opacity="1" fill-opacity="0" stroke="#000000" stroke-width="13" stroke-opacity="1"></use></g></g><g><g><use xlink:href="#c7hALWSfl" opacity="1" fill-opacity="0" stroke="#000000" stroke-width="13" stroke-opacity="1"></use></g></g><g><use xlink:href="#i2oBZV23TI" opacity="1" fill="#ffffff" fill-opacity="1"></use><g><use xlink:href="#i2oBZV23TI" opacity="1" fill-opacity="0" stroke="#000000" stroke-width="12" stroke-opacity="1"></use></g></g><g><g><use xlink:href="#c318DIr4ne" opacity="1" fill-opacity="0" stroke="#000000" stroke-width="12" stroke-opacity="1"></use></g></g><g><g><use xlink:href="#b59dE1xrP" opacity="1" fill-opacity="0" stroke="#000000" stroke-width="12" stroke-opacity="1"></use></g></g><g><g><use xlink:href="#e1FZrjDtiZ" opacity="1" fill-opacity="0" stroke="#000000" stroke-width="12" stroke-opacity="1"></use></g></g><g><g><use xlink:href="#e84hy9NyY6" opacity="1" fill-opacity="0" stroke="#000000" stroke-width="18" stroke-opacity="1"></use></g></g></g></g></svg>