<?xml version="1.0" encoding="UTF-8" standalone="no"?>
<!DOCTYPE svg PUBLIC "-//W3C//DTD SVG 1.1//EN" "http://www.w3.org/Graphics/SVG/1.1/DTD/svg11.dtd">
<svg version="1.1" xmlns="http://www.w3.org/2000/svg" xmlns:xlink="http://www.w3.org/1999/xlink" preserveAspectRatio="xMidYMid meet" viewBox="0 0 640 640" width="640" height="640"><defs><path d="M552 50.5C563.05 50.5 572 59.45 572 70.5C572 83.7 572 119.14 572 136.3C572 136.41 571.91 136.5 571.8 136.5C505.16 136.5 338.56 136.5 72 136.5C72 101.3 72 79.3 72 70.5C72 59.45 80.95 50.5 92 50.5C188 50.5 456 50.5 552 50.5Z" id="dJ92aF9OZ"></path><path d="M72 135L572 135C572 351.8 572 487.3 572 541.5C572 552.55 563.05 561.5 552 561.5C456 561.5 188 561.5 92 561.5C80.95 561.5 72 552.55 72 541.5C72 487.3 72 351.8 72 135Z" id="f1an74GO7J"></path><path d="M548.56 53.5C561.51 53.5 572 63.99 572 76.94C572 173.85 572 441.15 572 538.06C572 551.01 561.51 561.5 548.56 561.5C453.25 561.5 190.75 561.5 95.44 561.5C82.49 561.5 72 551.01 72 538.06C72 441.15 72 173.85 72 76.94C72 63.99 82.49 53.5 95.44 53.5C190.75 53.5 453.25 53.5 548.56 53.5Z" id="curdrXmlc"></path><path d="M128 561.5L128 53.5" id="a1M2BPohB8"></path><path d="M191 561.5L191 53.5" id="b3YCQHo0KV"></path><path d="M256 561.5L256 53.5" id="aIzvSgQFE"></path><path d="M316 558.5L316 50.5" id="d4QyyBKOZ2"></path><path d="M381 561.5L381 53.5" id="a1cT7ee3NA"></path><path d="M446 561.5L446 53.5" id="f1roafKgoI"></path><path d="M509 561.5L509 53.5" id="a212om0Ko6"></path><path d="M570 133.5L70 136.5" id="i3PYa1S6H9"></path><path d="M572 200.5L72 203.5" id="aGSKAhd3h"></path><path d="M572 272.5L72 275.5" id="azQoSj3gO"></path><path d="M572 343L72 346" id="dSNB4elFv"></path><path d="M566 415L66 418" id="b4pAMxjL3i"></path><path d="M570 483L70 486" id="g27bfM3zEC"></path></defs><g><g><g><use xlink:href="#dJ92aF9OZ" opacity="1" fill="#777777" fill-opacity="1"></use></g><g><use xlink:href="#f1an74GO7J" opacity="1" fill="#ffffff" fill-opacity="1"></use></g><g><g><use xlink:href="#curdrXmlc" opacity="1" fill-opacity="0" stroke="#000000" stroke-width="13" stroke-opacity="1"></use></g></g><g><g><use xlink:href="#a1M2BPohB8" opacity="1" fill-opacity="0" stroke="#000000" stroke-width="13" stroke-opacity="1"></use></g></g><g><g><use xlink:href="#b3YCQHo0KV" opacity="1" fill-opacity="0" stroke="#000000" stroke-width="13" stroke-opacity="1"></use></g></g><g><g><use xlink:href="#aIzvSgQFE" opacity="1" fill-opacity="0" stroke="#000000" stroke-width="13" stroke-opacity="1"></use></g></g><g><g><use xlink:href="#d4QyyBKOZ2" opacity="1" fill-opacity="0" stroke="#000000" stroke-width="13" stroke-opacity="1"></use></g></g><g><g><use xlink:href="#a1cT7ee3NA" opacity="1" fill-opacity="0" stroke="#000000" stroke-width="13" stroke-opacity="1"></use></g></g><g><g><use xlink:href="#f1roafKgoI" opacity="1" fill-opacity="0" stroke="#000000" stroke-width="13" stroke-opacity="1"></use></g></g><g><g><use xlink:href="#a212om0Ko6" opacity="1" fill-opacity="0" stroke="#000000" stroke-width="13" stroke-opacity="1"></use></g></g><g><g><use xlink:href="#i3PYa1S6H9" opacity="1" fill-opacity="0" stroke="#000000" stroke-width="13" stroke-opacity="1"></use></g></g><g><g><use xlink:href="#aGSKAhd3h" opacity="1" fill-opacity="0" stroke="#000000" stroke-width="13" stroke-opacity="1"></use></g></g><g><g><use xlink:href="#azQoSj3gO" opacity="1" fill-opacity="0" stroke="#000000" stroke-width="13" stroke-opacity="1"></use></g></g><g><g><use xlink:href="#dSNB4elFv" opacity="1" fill-opacity="0" stroke="#000000" stroke-width="13" stroke-opacity="1"></use></g></g><g><g><use xlink:href="#b4pAMxjL3i" opacity="1" fill-opacity="0" stroke="#000000" stroke-width="13" stroke-opacity="1"></use></g></g><g><g><use xlink:href="#g27bfM3zEC" opacity="1" fill-opacity="0" stroke="#000000" stroke-width="13" stroke-opacity="1"></use></g></g></g></g></svg>