<?xml version="1.0" encoding="UTF-8" standalone="no"?>
<!DOCTYPE svg PUBLIC "-//W3C//DTD SVG 1.1//EN" "http://www.w3.org/Graphics/SVG/1.1/DTD/svg11.dtd">
<svg version="1.1" xmlns="http://www.w3.org/2000/svg" xmlns:xlink="http://www.w3.org/1999/xlink" preserveAspectRatio="xMidYMid meet" viewBox="0 0 640 640" width="640" height="640"><defs><path d="M599 195.5L599 437.5L437 606.5L192 606.5L26 437.5L26 195.5L192 30.5L437 30.5L599 195.5Z" id="ePorgCKaX"></path><path d="M455 383.5C455 458.01 394.51 518.5 320 518.5C245.49 518.5 185 458.01 185 383.5C185 308.99 245.49 248.5 320 248.5C394.51 248.5 455 308.99 455 383.5Z" id="ail9dJKhF"></path><path d="M286.41 549.37C276.24 564.53 267.12 583.02 259.06 604.82L381.06 604.82C374.93 583.02 366.78 564.53 356.61 549.37C352.2 542.78 347.31 537.19 341.95 532.6C329.53 521.94 311.04 522.44 299.22 533.76C294.85 537.93 290.58 543.14 286.41 549.37Z" id="fJKlvc6gd"></path><path d="M383.65 232.81C382.43 233.59 380.81 232.82 380.65 231.37C379.12 217.6 374.88 179.4 373.35 165.63C373.21 164.37 371.68 163.85 370.8 164.74C360.64 175.1 332.36 203.9 322.2 214.26C320.99 215.5 319 215.51 317.76 214.3C307.2 203.94 277.8 175.06 267.24 164.7C266.35 163.83 264.84 164.39 264.74 165.63C263.59 179.41 260.41 217.59 259.26 231.37C259.14 232.79 257.55 233.58 256.35 232.81C242.08 223.75 201.92 198.25 187.65 189.19C186.81 188.65 185.78 189.5 186.14 190.43C193.91 210.45 216.09 267.55 223.86 287.57C224.57 289.4 226.16 290.74 228.08 291.13C258.59 297.38 289.56 300.5 321 300.5C352.47 300.5 384.44 297.37 416.91 291.1C418.82 290.73 420.39 289.36 421.01 287.52C427.81 267.52 447.19 210.48 453.99 190.48C454.32 189.49 453.23 188.63 452.35 189.19C438.08 198.25 397.92 223.75 383.65 232.81Z" id="f1RF0LKR85"></path><path d="M271.55 383.5L271.55 337.26" id="b7jwh1Bldg"></path><path d="M363.55 383.5L363.55 337.26" id="fWFaw1SSH"></path><path d="M357.56 449.26C349.86 462.6 338 469.26 322 469.26C306 469.26 292.86 462.6 282.56 449.26" id="aSQIhaYft"></path><path d="M218.55 290.26C203.39 307.18 190.72 330.55 180.55 360.38C165.3 405.13 167.8 445.29 157.55 469.26C147.3 493.23 143.55 452.76 139.55 456.26C135.55 459.76 128.3 475.01 136.55 483.26C144.8 491.51 157.19 512.96 172.55 489.26C187.92 465.57 175 435.69 198 388.5C213.33 357.04 235.52 327.71 264.55 300.5L218.55 290.26Z" id="a53ysJ0mjm"></path><path d="M421.78 293.26C436.94 310.18 449.61 333.55 459.78 363.38C475.03 408.13 472.53 448.29 482.78 472.26C493.03 496.23 496.78 455.76 500.78 459.26C504.78 462.76 512.03 478.01 503.78 486.26C495.53 494.51 483.14 515.96 467.78 492.26C452.41 468.57 465.33 438.69 442.33 391.5C427 360.04 404.81 330.71 375.78 303.5L421.78 293.26Z" id="g1bfgZ6yZE"></path><path d="M322.55 485.26C328.24 485.26 334.14 478.83 340.27 465.96C341.07 464.28 340.94 462.31 339.94 460.75C338.46 458.46 335.64 454.07 334.17 451.78C333.39 450.57 331.65 450.53 330.82 451.69C329.17 454.01 325.94 458.52 324.29 460.84C323.39 462.09 321.57 462.21 320.52 461.08C318.33 458.71 313.78 453.81 311.58 451.45C310.63 450.42 308.93 450.72 308.38 452.01C307.41 454.26 305.69 458.27 304.73 460.52C303.98 462.26 304.02 464.25 304.84 465.96C310.96 478.83 316.87 485.26 322.55 485.26Z" id="b38lkUXuub"></path><path d="M284.21 327.61L275.71 340.61L284.21 327.61Z" id="f7YA3nsrZ"></path><path d="M375.78 327.61L367.28 340.61L375.78 327.61Z" id="bpf0ckN2"></path><path d="M351.78 327.61L360.28 340.61L351.78 327.61Z" id="au0xHA4ii"></path><path d="M259.06 327.61L267.56 340.61L259.06 327.61Z" id="b3X6GlXLh"></path><path d="M271.55 325.11L271.55 339.61L271.55 325.11Z" id="e3RsMOirOh"></path><path d="M363.55 326.11L363.55 340.61L363.55 326.11Z" id="bzwKQwNRi"></path></defs><g><g><g><use xlink:href="#ePorgCKaX" opacity="1" fill="#751018" fill-opacity="1"></use><g><use xlink:href="#ePorgCKaX" opacity="1" fill-opacity="0" stroke="#000000" stroke-width="13" stroke-opacity="1"></use></g></g><g><use xlink:href="#ail9dJKhF" opacity="1" fill="#ffe7aa" fill-opacity="1"></use><g><use xlink:href="#ail9dJKhF" opacity="1" fill-opacity="0" stroke="#000000" stroke-width="13" stroke-opacity="1"></use></g></g><g><use xlink:href="#fJKlvc6gd" opacity="1" fill="#42b0db" fill-opacity="1"></use><g><use xlink:href="#fJKlvc6gd" opacity="1" fill-opacity="0" stroke="#000000" stroke-width="13" stroke-opacity="1"></use></g></g><g><use xlink:href="#f1RF0LKR85" opacity="1" fill="#ffe400" fill-opacity="1"></use><g><use xlink:href="#f1RF0LKR85" opacity="1" fill-opacity="0" stroke="#000000" stroke-width="13" stroke-opacity="1"></use></g></g><g><g><use xlink:href="#b7jwh1Bldg" opacity="1" fill-opacity="0" stroke="#000000" stroke-width="18" stroke-opacity="1"></use></g></g><g><g><use xlink:href="#fWFaw1SSH" opacity="1" fill-opacity="0" stroke="#000000" stroke-width="18" stroke-opacity="1"></use></g></g><g><g><use xlink:href="#aSQIhaYft" opacity="1" fill-opacity="0" stroke="#000000" stroke-width="13" stroke-opacity="1"></use></g></g><g><use xlink:href="#a53ysJ0mjm" opacity="1" fill="#ba7400" fill-opacity="1"></use><g><use xlink:href="#a53ysJ0mjm" opacity="1" fill-opacity="0" stroke="#000000" stroke-width="14" stroke-opacity="1"></use></g></g><g><use xlink:href="#g1bfgZ6yZE" opacity="1" fill="#ba7400" fill-opacity="1"></use><g><use xlink:href="#g1bfgZ6yZE" opacity="1" fill-opacity="0" stroke="#000000" stroke-width="14" stroke-opacity="1"></use></g></g><g><use xlink:href="#b38lkUXuub" opacity="1" fill="#000000" fill-opacity="1"></use><g><use xlink:href="#b38lkUXuub" opacity="1" fill-opacity="0" stroke="#000000" stroke-width="12" stroke-opacity="1"></use></g></g><g><g><use xlink:href="#f7YA3nsrZ" opacity="1" fill-opacity="0" stroke="#000000" stroke-width="7" stroke-opacity="1"></use></g></g><g><g><use xlink:href="#bpf0ckN2" opacity="1" fill-opacity="0" stroke="#000000" stroke-width="7" stroke-opacity="1"></use></g></g><g><g><use xlink:href="#au0xHA4ii" opacity="1" fill-opacity="0" stroke="#000000" stroke-width="7" stroke-opacity="1"></use></g></g><g><g><use xlink:href="#b3X6GlXLh" opacity="1" fill-opacity="0" stroke="#000000" stroke-width="7" stroke-opacity="1"></use></g></g><g><g><use xlink:href="#e3RsMOirOh" opacity="1" fill-opacity="0" stroke="#000000" stroke-width="7" stroke-opacity="1"></use></g></g><g><g><use xlink:href="#bzwKQwNRi" opacity="1" fill-opacity="0" stroke="#000000" stroke-width="7" stroke-opacity="1"></use></g></g></g></g></svg>