<?xml version="1.0" encoding="UTF-8" standalone="no"?>
<!DOCTYPE svg PUBLIC "-//W3C//DTD SVG 1.1//EN" "http://www.w3.org/Graphics/SVG/1.1/DTD/svg11.dtd">
<svg version="1.1" xmlns="http://www.w3.org/2000/svg" xmlns:xlink="http://www.w3.org/1999/xlink" preserveAspectRatio="xMidYMid meet" viewBox="0 0 640 640" width="640" height="640"><defs><path d="M49.87 457.6C40.76 440.43 43.54 425.73 58.2 413.51L117.64 415.76C155.96 258.61 179.91 160.39 189.49 121.11C192.01 110.77 201.24 103.47 211.88 103.39C247.03 103.13 334.92 102.49 475.54 101.46C511.42 100.78 533.99 107.43 543.27 121.42C557.18 142.4 554.71 159.09 534.19 172.38C520.51 181.25 496.17 181.99 461.18 174.6C432.91 310.75 415.24 395.84 408.17 429.87C400.9 464.9 369.7 489.78 333.93 489.09C302.86 488.49 225.17 486.98 100.86 484.57C75.98 483.77 58.98 474.78 49.87 457.6Z" id="b2SiSHPIEY"></path><path d="M367.2 430.41C364.45 418.74 360.74 412.07 356.05 410.41C351.37 408.74 344.38 408.74 335.09 410.41C330.15 412.54 326.85 416.69 325.2 422.86C323.55 429.03 323.55 437.21 325.2 447.41C326.3 456.25 329.59 464 335.09 470.67C343.34 480.67 348.79 485.54 363.2 484.41C377.62 483.27 380.25 480.39 392.75 466.14C401.09 456.64 406.24 444.73 408.2 430.41L465.2 135.41C468.19 118.56 477.26 107.39 492.42 101.9C515.15 93.65 531.14 104.69 540.14 117.44C549.14 130.19 548.31 133.38 549.2 146.41C550.09 159.43 545.89 164.79 540.14 170.54C534.39 176.29 527.2 180.41 518.2 177.41C512.2 175.41 508.53 166.74 507.2 151.41" id="aFXDCpSsZ"></path><path d="M122.2 410.41C158.1 257.33 180.54 161.65 189.52 123.38C192.27 111.64 202.66 103.29 214.71 103.12C253.85 102.58 351.67 101.22 508.2 99.05" id="adIhAd8GI"></path><path d="M58.2 410.41L340.2 410.41" id="adYwHh4ES"></path><path d="M81.2 484.57L363.2 484.57" id="ad5Nk2nta"></path><path d="M460.2 158.41L514.2 158.41" id="aFJ8yAluV"></path><path d="M460.2 178.41L524.2 178.41" id="bwbSm7qwd"></path><path d="M323.96 430.41L372.2 430.41" id="k8egzf8f7"></path><path d="M73.05 410.41C68.37 408.74 63.05 408.74 57.09 410.41C52.15 412.54 48.85 416.69 47.2 422.86C45.55 429.03 45.55 437.21 47.2 447.41C48.3 456.25 51.59 464 57.09 470.67C65.34 480.67 70.79 485.54 85.2 484.41" id="i15wAxXS6G"></path><path d="M370.5 155.41L269.5 158.41" id="d1SDWsqm5V"></path><path d="M397.7 221.41L216.7 224.41" id="b41iV0Bvd"></path><path d="M388.82 266.41L207.82 269.41" id="b1MJJINpLT"></path><path d="M372.2 309.41L191.2 312.41" id="a4VGjSRXg"></path><path d="M360 356.41L179 359.41" id="jQuFaFM97"></path></defs><g><g><g><use xlink:href="#b2SiSHPIEY" opacity="1" fill="#ffffff" fill-opacity="1"></use></g><g><g><use xlink:href="#aFXDCpSsZ" opacity="1" fill-opacity="0" stroke="#000000" stroke-width="13" stroke-opacity="1"></use></g></g><g><g><use xlink:href="#adIhAd8GI" opacity="1" fill-opacity="0" stroke="#000000" stroke-width="13" stroke-opacity="1"></use></g></g><g><g><use xlink:href="#adYwHh4ES" opacity="1" fill-opacity="0" stroke="#000000" stroke-width="13" stroke-opacity="1"></use></g></g><g><g><use xlink:href="#ad5Nk2nta" opacity="1" fill-opacity="0" stroke="#000000" stroke-width="13" stroke-opacity="1"></use></g></g><g><g><use xlink:href="#aFJ8yAluV" opacity="1" fill-opacity="0" stroke="#000000" stroke-width="13" stroke-opacity="1"></use></g></g><g><g><use xlink:href="#bwbSm7qwd" opacity="1" fill-opacity="0" stroke="#000000" stroke-width="13" stroke-opacity="1"></use></g></g><g><g><use xlink:href="#k8egzf8f7" opacity="1" fill-opacity="0" stroke="#000000" stroke-width="13" stroke-opacity="1"></use></g></g><g><g><use xlink:href="#i15wAxXS6G" opacity="1" fill-opacity="0" stroke="#000000" stroke-width="13" stroke-opacity="1"></use></g></g><g><g><use xlink:href="#d1SDWsqm5V" opacity="1" fill-opacity="0" stroke="#000000" stroke-width="13" stroke-opacity="1"></use></g></g><g><g><use xlink:href="#b41iV0Bvd" opacity="1" fill-opacity="0" stroke="#000000" stroke-width="13" stroke-opacity="1"></use></g></g><g><g><use xlink:href="#b1MJJINpLT" opacity="1" fill-opacity="0" stroke="#000000" stroke-width="13" stroke-opacity="1"></use></g></g><g><g><use xlink:href="#a4VGjSRXg" opacity="1" fill-opacity="0" stroke="#000000" stroke-width="13" stroke-opacity="1"></use></g></g><g><g><use xlink:href="#jQuFaFM97" opacity="1" fill-opacity="0" stroke="#000000" stroke-width="13" stroke-opacity="1"></use></g></g></g></g></svg>