<?xml version="1.0" encoding="UTF-8" standalone="no"?>
<!DOCTYPE svg PUBLIC "-//W3C//DTD SVG 1.1//EN" "http://www.w3.org/Graphics/SVG/1.1/DTD/svg11.dtd">
<svg version="1.1" xmlns="http://www.w3.org/2000/svg" xmlns:xlink="http://www.w3.org/1999/xlink" preserveAspectRatio="xMidYMid meet" viewBox="0 0 640 640" width="640" height="640"><defs><path d="M366.33 478.5C423.52 470.68 459.38 455.77 473.92 433.78C488.46 411.8 498.35 378.39 503.58 333.56C484.05 376.18 458.73 403.73 427.64 416.22C396.54 428.71 359.66 426.14 317 408.5C278.56 425.48 244.26 428.05 214.11 416.22C183.96 404.39 157.95 378.15 136.09 337.5C140.46 385.42 154.36 420.46 177.77 442.63C201.19 464.79 234.13 474.08 276.59 470.5L257.37 640L380 640L366.33 478.5Z" id="f1L8Dlhk1g"></path><path d="M383 345.5C383 380.27 354.77 408.5 320 408.5C285.23 408.5 257 380.27 257 345.5C257 310.73 285.23 282.5 320 282.5C354.77 282.5 383 310.73 383 345.5Z" id="d6hexYzoQX"></path><path d="M503.05 194.38C510.94 194.38 517.33 200.77 517.33 208.66C517.33 223.43 517.33 253.45 517.33 268.22C517.33 276.11 510.94 282.5 503.05 282.5C487.22 282.5 454.03 282.5 438.2 282.5C430.31 282.5 423.92 276.11 423.92 268.22C423.92 253.45 423.92 223.43 423.92 208.66C423.92 200.77 430.31 194.38 438.2 194.38C454.03 194.38 487.22 194.38 503.05 194.38Z" id="aNGdFbaAv"></path><path d="M214.11 238.44C214.11 265.21 192.38 286.94 165.61 286.94C138.84 286.94 117.11 265.21 117.11 238.44C117.11 211.67 138.84 189.94 165.61 189.94C192.38 189.94 214.11 211.67 214.11 238.44Z" id="a1avAZMln3"></path><path d="M365.92 182.86C368.15 186.69 365.38 191.5 360.94 191.5C342.54 191.5 297.34 191.5 278.94 191.5C274.55 191.5 271.84 186.7 274.12 182.94C283.48 167.45 306.4 129.55 315.77 114.06C318.1 110.2 323.71 110.25 325.97 114.14C334.96 129.62 356.92 167.38 365.92 182.86Z" id="aGir3fg5B"></path><path d="M296.28 284.23C297.7 285.42 299.86 285.05 300.81 283.45C305.31 275.86 316.99 256.14 321.49 248.55C322.26 247.25 324.16 247.34 324.8 248.71C328.64 256.87 338.65 278.13 342.49 286.29C343.23 287.86 345.3 288.24 346.54 287.03C353.83 279.92 373.17 261.08 380.46 253.97C381.32 253.14 382.75 253.83 382.63 255.03C381.3 267.52 377.7 301.48 376.37 313.97C376.15 316.1 374.64 317.87 372.58 318.42C355.02 323.14 337.5 325.5 320 325.5C302.5 325.5 284.98 323.14 267.42 318.42C265.36 317.87 263.85 316.1 263.63 313.97C262.3 301.48 258.7 267.52 257.37 255.03C257.24 253.74 258.73 252.94 259.72 253.77C267.58 260.32 288.42 277.68 296.28 284.23Z" id="aH5oVfc6p"></path><path d="M379.09 640C372.51 555.18 368.39 502.16 366.75 480.96C366.39 476.41 370.01 472.54 374.57 472.58C416.05 473 447.39 461.15 468.59 437.03C489.64 413.07 501.31 379.19 503.58 335.39C503.68 333.45 501 332.83 500.25 334.62C482.89 375.86 460.9 402.56 434.28 414.73C405.11 428.06 370.05 425.99 329.09 408.5" id="eXgdTvyPk"></path><path d="M260.58 640C267.16 555.18 271.28 502.16 272.92 480.96C273.28 476.41 269.66 472.54 265.1 472.58C223.62 473 192.28 461.15 171.08 437.03C150.03 413.07 138.36 379.19 136.09 335.39C135.99 333.45 138.67 332.83 139.42 334.62C156.78 375.86 178.77 402.56 205.39 414.73C234.56 428.06 269.62 425.99 310.58 408.5" id="a7GW0OCfM"></path></defs><g><g><g><use xlink:href="#f1L8Dlhk1g" opacity="1" fill="#ffffff" fill-opacity="1"></use><g><use xlink:href="#f1L8Dlhk1g" opacity="1" fill-opacity="0" stroke="#0b0607" stroke-width="1" stroke-opacity="1"></use></g></g><g><use xlink:href="#d6hexYzoQX" opacity="1" fill="#ffffff" fill-opacity="1"></use><g><use xlink:href="#d6hexYzoQX" opacity="1" fill-opacity="0" stroke="#000000" stroke-width="13" stroke-opacity="1"></use></g></g><g><use xlink:href="#aNGdFbaAv" opacity="1" fill="#ffffff" fill-opacity="1"></use><g><use xlink:href="#aNGdFbaAv" opacity="1" fill-opacity="0" stroke="#000000" stroke-width="13" stroke-opacity="1"></use></g></g><g><use xlink:href="#a1avAZMln3" opacity="1" fill="#ffffff" fill-opacity="1"></use><g><use xlink:href="#a1avAZMln3" opacity="1" fill-opacity="0" stroke="#000000" stroke-width="13" stroke-opacity="1"></use></g></g><g><use xlink:href="#aGir3fg5B" opacity="1" fill="#ffffff" fill-opacity="1"></use><g><use xlink:href="#aGir3fg5B" opacity="1" fill-opacity="0" stroke="#000000" stroke-width="13" stroke-opacity="1"></use></g></g><g><use xlink:href="#aH5oVfc6p" opacity="1" fill="#ffffff" fill-opacity="1"></use><g><use xlink:href="#aH5oVfc6p" opacity="1" fill-opacity="0" stroke="#000000" stroke-width="13" stroke-opacity="1"></use></g></g><g><g><use xlink:href="#eXgdTvyPk" opacity="1" fill-opacity="0" stroke="#0b0607" stroke-width="13" stroke-opacity="1"></use></g></g><g><g><use xlink:href="#a7GW0OCfM" opacity="1" fill-opacity="0" stroke="#0b0607" stroke-width="13" stroke-opacity="1"></use></g></g></g></g></svg>