<?xml version="1.0" encoding="UTF-8" standalone="no"?>
<!DOCTYPE svg PUBLIC "-//W3C//DTD SVG 1.1//EN" "http://www.w3.org/Graphics/SVG/1.1/DTD/svg11.dtd">
<svg version="1.1" xmlns="http://www.w3.org/2000/svg" xmlns:xlink="http://www.w3.org/1999/xlink" preserveAspectRatio="xMidYMid meet" viewBox="0 0 640 640" width="640" height="640"><defs><path d="M4.76 447.17L635.24 450.71L635.24 52L4.76 52L4.76 447.17Z" id="f1SiwCB4dN"></path><path d="M635.24 455.19L635.24 344.19C599.64 339.35 565.24 343.69 532.05 357.19C498.85 370.69 466.85 393.35 436.05 425.19L635.24 455.19Z" id="ayUfawxFZ"></path><path d="M4.76 459.19L488.05 423.19C400.23 374.26 317.55 342.86 240 329C162.45 315.14 84.04 315.14 4.76 329L4.76 459.19Z" id="g4JI3FS1wO"></path><path d="M412.88 412.19C458.85 416.37 500.37 421.63 537.43 427.96C574.49 434.29 607.09 441.7 635.24 450.19L635.24 539.79L4.76 539.79L4.76 455.19C29.01 441.84 57.57 431.58 90.44 424.42C123.31 417.25 160.5 413.17 202 412.19L412.88 412.19Z" id="c1gZN5FJp"></path><path d="M322 325.84C322 328.97 324.53 331.5 327.66 331.5C329.13 331.5 327.87 331.5 329.34 331.5C332.47 331.5 335 328.97 335 325.84C335 320.97 335 312.03 335 307.16C335 304.03 337.53 301.5 340.66 301.5C345.13 301.5 352.87 301.5 357.34 301.5C360.47 301.5 363 304.03 363 307.16C363 312.03 363 320.97 363 325.84C363 328.97 365.53 331.5 368.66 331.5C370.33 331.5 369.67 331.5 371.34 331.5C374.47 331.5 377 328.97 377 325.84C377 320.97 377 312.03 377 307.16C377 304.03 379.53 301.5 382.66 301.5C388.13 301.5 398.87 301.5 404.34 301.5C407.49 301.5 410.06 304.01 410.12 307.16C410.7 333.42 412.3 406.58 412.88 432.84C412.94 435.95 410.45 438.5 407.34 438.5C366.27 438.5 248.73 438.5 207.66 438.5C204.53 438.5 202 435.97 202 432.84C202 407.37 202 336.63 202 311.16C202 308.03 204.53 305.5 207.66 305.5C214.53 305.5 229.47 305.5 236.34 305.5C239.47 305.5 242 308.03 242 311.16C242 312.93 242 312.57 242 314.34C242 317.47 244.53 320 247.66 320C249.33 320 248.67 320 250.34 320C253.47 320 256 317.47 256 314.34C256 295.37 256 244.13 256 225.16C256 222.03 258.53 219.5 261.66 219.5C273.73 219.5 304.27 219.5 316.34 219.5C319.47 219.5 322 222.03 322 225.16C322 246.43 322 304.57 322 325.84Z" id="baQicicyp"></path><path d="M220.3 308C229.21 308 238.15 306.53 247.1 303.58C248.07 303.26 248.45 302.1 247.87 301.26C242.35 293.47 227 271.76 221.48 263.96C220.91 263.15 219.7 263.15 219.12 263.96C213.61 271.76 198.25 293.47 192.74 301.26C192.15 302.1 192.53 303.26 193.5 303.58C202.46 306.53 211.39 308 220.3 308Z" id="aIsn67rf6"></path><path d="M289.04 224.5C302.68 224.5 316.37 221.87 330.11 216.62C331.54 216.07 331.99 214.28 330.99 213.13C322.6 203.4 299.48 176.6 291.09 166.87C290.01 165.62 288.07 165.62 286.99 166.87C278.6 176.6 255.48 203.4 247.09 213.13C246.09 214.28 246.54 216.07 247.97 216.62C261.7 221.87 275.4 224.5 289.04 224.5Z" id="a3l5SZfqH"></path><path d="M349.34 305C358.25 305 367.19 303.53 376.15 300.58C377.11 300.26 377.5 299.1 376.91 298.26C371.4 290.47 356.04 268.76 350.53 260.96C349.95 260.15 348.74 260.15 348.16 260.96C342.65 268.76 327.29 290.47 321.78 298.26C321.19 299.1 321.57 300.26 322.54 300.58C331.5 303.53 340.43 305 349.34 305Z" id="b2ddPGVBAv"></path><path d="M394.34 303.48C402.14 303.48 409.97 301.94 417.82 298.86C418.69 298.51 419.05 297.47 418.57 296.66C413.73 288.5 400.1 265.55 395.26 257.39C394.85 256.7 393.84 256.7 393.43 257.39C388.58 265.55 374.96 288.5 370.12 296.66C369.64 297.47 369.99 298.51 370.87 298.86C378.72 301.94 386.55 303.48 394.34 303.48Z" id="dFE23RdQy"></path><path d="M336.05 438.5L336.05 383C334.02 374.21 330 367.93 324 364.18C315 358.56 305.78 358.3 296.55 363C290.39 366.14 285.89 372.8 283.05 383L283.05 438.5" id="k7qKzhn9u"></path><path d="M309.55 438.5L309.55 359.7" id="a3ecteIMsw"></path><path d="M336.05 438.5C329.71 456.74 329.05 474.31 334.05 491.19C339.05 508.07 349.71 524.27 366.05 539.79L309.55 539.79C296.3 524.27 287.46 508.07 283.05 491.19C278.63 474.31 278.63 456.74 283.05 438.5L336.05 438.5Z" id="ddK9hqofM"></path><path d="M557.05 183.69C557.05 198.86 544.72 211.19 529.55 211.19C514.37 211.19 502.05 198.86 502.05 183.69C502.05 168.51 514.37 156.19 529.55 156.19C544.72 156.19 557.05 168.51 557.05 183.69Z" id="f7Uuj4x3"></path><path d="M143.05 193.19C136.21 197.19 129.21 205.19 122.05 217.19C111.88 204.2 103.55 196.88 97.05 195.22" id="e14ixEZKC7"></path><path d="M83.05 150.19C77.92 153.1 72.67 158.94 67.3 167.69C59.67 158.22 53.42 152.88 48.55 151.67" id="c2AcxeULI"></path><path d="M529.55 101.71L529.55 135.71" id="a1kJG1WDaD"></path><path d="M529.55 231.71L529.55 265.71" id="arwCgQMzC"></path><path d="M442.07 183.69L480.07 183.69" id="h2crJtzMi1"></path><path d="M576.07 186.69L614.07 186.69" id="bTfs8oNAh"></path><path d="M452.07 118.71L484.07 143.71" id="aGYmiLNRg"></path><path d="M600.07 118.71L568.07 143.71" id="j1ayUTex9x"></path><path d="M568.07 228.71L600.07 253.71" id="bQ08oi0pO"></path><path d="M484.07 228.71L452.07 253.71" id="a7mpK3riX"></path></defs><g><g><g><use xlink:href="#f1SiwCB4dN" opacity="1" fill="#04dad8" fill-opacity="1"></use><g><use xlink:href="#f1SiwCB4dN" opacity="1" fill-opacity="0" stroke="#000000" stroke-width="13" stroke-opacity="1"></use></g></g><g><use xlink:href="#ayUfawxFZ" opacity="1" fill="#76cc14" fill-opacity="1"></use><g><use xlink:href="#ayUfawxFZ" opacity="1" fill-opacity="0" stroke="#000000" stroke-width="13" stroke-opacity="1"></use></g></g><g><use xlink:href="#g4JI3FS1wO" opacity="1" fill="#213808" fill-opacity="1"></use><g><use xlink:href="#g4JI3FS1wO" opacity="1" fill-opacity="0" stroke="#000000" stroke-width="13" stroke-opacity="1"></use></g></g><g><use xlink:href="#c1gZN5FJp" opacity="1" fill="#5d9221" fill-opacity="1"></use><g><use xlink:href="#c1gZN5FJp" opacity="1" fill-opacity="0" stroke="#000000" stroke-width="13" stroke-opacity="1"></use></g></g><g><use xlink:href="#baQicicyp" opacity="1" fill="#ffffff" fill-opacity="1"></use><g><use xlink:href="#baQicicyp" opacity="1" fill-opacity="0" stroke="#000000" stroke-width="13" stroke-opacity="1"></use></g></g><g><use xlink:href="#aIsn67rf6" opacity="1" fill="#ffffff" fill-opacity="1"></use><g><use xlink:href="#aIsn67rf6" opacity="1" fill-opacity="0" stroke="#000000" stroke-width="13" stroke-opacity="1"></use></g></g><g><use xlink:href="#a3l5SZfqH" opacity="1" fill="#ffffff" fill-opacity="1"></use><g><use xlink:href="#a3l5SZfqH" opacity="1" fill-opacity="0" stroke="#000000" stroke-width="13" stroke-opacity="1"></use></g></g><g><use xlink:href="#b2ddPGVBAv" opacity="1" fill="#ffffff" fill-opacity="1"></use><g><use xlink:href="#b2ddPGVBAv" opacity="1" fill-opacity="0" stroke="#000000" stroke-width="13" stroke-opacity="1"></use></g></g><g><use xlink:href="#dFE23RdQy" opacity="1" fill="#ffffff" fill-opacity="1"></use><g><use xlink:href="#dFE23RdQy" opacity="1" fill-opacity="0" stroke="#000000" stroke-width="13" stroke-opacity="1"></use></g></g><g><use xlink:href="#k7qKzhn9u" opacity="1" fill="#713b00" fill-opacity="1"></use><g><use xlink:href="#k7qKzhn9u" opacity="1" fill-opacity="0" stroke="#000000" stroke-width="13" stroke-opacity="1"></use></g></g><g><g><use xlink:href="#a3ecteIMsw" opacity="1" fill-opacity="0" stroke="#000000" stroke-width="13" stroke-opacity="1"></use></g></g><g><use xlink:href="#ddK9hqofM" opacity="1" fill="#aa872c" fill-opacity="1"></use><g><use xlink:href="#ddK9hqofM" opacity="1" fill-opacity="0" stroke="#000000" stroke-width="13" stroke-opacity="1"></use></g></g><g><use xlink:href="#f7Uuj4x3" opacity="1" fill="#fff900" fill-opacity="1"></use><g><use xlink:href="#f7Uuj4x3" opacity="1" fill-opacity="0" stroke="#000000" stroke-width="13" stroke-opacity="1"></use></g></g><g><g><use xlink:href="#e14ixEZKC7" opacity="1" fill-opacity="0" stroke="#000000" stroke-width="13" stroke-opacity="1"></use></g></g><g><g><use xlink:href="#c2AcxeULI" opacity="1" fill-opacity="0" stroke="#000000" stroke-width="13" stroke-opacity="1"></use></g></g><g><g><use xlink:href="#a1kJG1WDaD" opacity="1" fill-opacity="0" stroke="#000000" stroke-width="13" stroke-opacity="1"></use></g></g><g><g><use xlink:href="#arwCgQMzC" opacity="1" fill-opacity="0" stroke="#000000" stroke-width="13" stroke-opacity="1"></use></g></g><g><g><use xlink:href="#h2crJtzMi1" opacity="1" fill-opacity="0" stroke="#000000" stroke-width="13" stroke-opacity="1"></use></g></g><g><g><use xlink:href="#bTfs8oNAh" opacity="1" fill-opacity="0" stroke="#000000" stroke-width="13" stroke-opacity="1"></use></g></g><g><g><use xlink:href="#aGYmiLNRg" opacity="1" fill-opacity="0" stroke="#000000" stroke-width="13" stroke-opacity="1"></use></g></g><g><g><use xlink:href="#j1ayUTex9x" opacity="1" fill-opacity="0" stroke="#000000" stroke-width="13" stroke-opacity="1"></use></g></g><g><g><use xlink:href="#bQ08oi0pO" opacity="1" fill-opacity="0" stroke="#000000" stroke-width="13" stroke-opacity="1"></use></g></g><g><g><use xlink:href="#a7mpK3riX" opacity="1" fill-opacity="0" stroke="#000000" stroke-width="13" stroke-opacity="1"></use></g></g></g></g></svg>