<?xml version="1.0" encoding="UTF-8" standalone="no"?>
<!DOCTYPE svg PUBLIC "-//W3C//DTD SVG 1.1//EN" "http://www.w3.org/Graphics/SVG/1.1/DTD/svg11.dtd">
<svg version="1.1" xmlns="http://www.w3.org/2000/svg" xmlns:xlink="http://www.w3.org/1999/xlink" preserveAspectRatio="xMidYMid meet" viewBox="0 0 640 640" width="640" height="640"><defs><path d="M444.77 626.5L431.77 589.5L379.77 565.5L256.77 565.5L208.77 589.5L195.77 623.5L444.77 626.5Z" id="fpnmNzOlG"></path><path d="M256.77 565.5L379.77 562.5L379.77 480.1L256.77 480.1L256.77 565.5Z" id="f118eAVLML"></path><path d="M8.77 38.5L8.77 452.6L34.77 477.5L598.77 480.1L626.77 452.6L626.77 42.5L618.77 22.5L590 11.5L42.77 14.5L8.77 38.5Z" id="d1sDHJ1EJ"></path><path d="M500 467.6C496.71 467.6 493.49 468.94 491.16 471.26C488.84 473.59 487.5 476.81 487.5 480.1C487.5 483.39 488.84 486.61 491.16 488.94C493.49 491.28 496.71 492.6 500 492.6C503.29 492.6 506.51 491.28 508.84 488.94C511.16 486.61 512.5 483.39 512.5 480.1C512.5 476.81 511.16 473.59 508.84 471.26C506.51 468.94 503.29 467.6 500 467.6Z" id="aG99kHOx3"></path><path d="M62.77 398.5L573.77 395.5L573.77 62.6L62.77 62.6L62.77 398.5Z" id="b1DdzzjrpI"></path><path d="M594.09 0.17L596.11 0.37L598.1 0.66L600.06 1.02L602 1.46L603.91 1.97L605.79 2.55L607.63 3.21L609.44 3.94L611.22 4.73L612.96 5.59L614.66 6.51L616.32 7.5L617.94 8.55L619.51 9.66L621.04 10.83L622.52 12.05L623.96 13.33L625.34 14.66L626.67 16.05L627.95 17.48L629.17 18.96L630.34 20.49L631.45 22.06L632.5 23.68L633.49 25.34L634.41 27.04L635.27 28.78L636.06 30.56L636.79 32.37L637.45 34.21L638.03 36.09L638.54 38L638.98 39.94L639.34 41.9L639.63 43.89L639.83 45.91L639.96 47.94L640 50L640 442.61L639.96 444.66L639.83 446.7L639.63 448.71L639.34 450.7L638.98 452.67L638.54 454.61L638.03 456.51L637.45 458.39L636.79 460.24L636.06 462.05L635.27 463.82L634.41 465.56L633.49 467.26L632.5 468.92L631.45 470.54L630.34 472.12L629.17 473.64L627.95 475.13L626.67 476.56L625.34 477.94L623.96 479.28L622.52 480.55L621.04 481.78L619.51 482.95L617.94 484.05L616.32 485.1L614.66 486.09L612.96 487.02L611.22 487.88L609.44 488.67L607.63 489.4L605.79 490.05L603.91 490.64L602 491.15L600.06 491.59L598.1 491.95L596.11 492.23L594.09 492.44L592.06 492.56L590 492.61L543.33 492.61L542.82 492.59L542.31 492.56L541.8 492.51L541.31 492.44L540.81 492.35L540.33 492.24L539.85 492.11L539.38 491.97L538.92 491.8L538.47 491.62L538.02 491.42L537.59 491.21L537.16 490.98L536.75 490.73L536.34 490.47L535.95 490.19L535.57 489.9L535.2 489.6L534.84 489.28L534.49 488.94L534.16 488.6L533.84 488.24L533.54 487.87L533.25 487.49L532.97 487.09L532.71 486.69L532.46 486.27L532.23 485.85L532.01 485.41L531.82 484.97L531.63 484.52L531.47 484.06L531.32 483.59L531.2 483.11L531.09 482.62L531 482.13L530.93 481.63L530.88 481.13L530.84 480.62L530.83 480.11L530.84 479.59L530.88 479.08L530.93 478.58L531 478.08L531.09 477.59L531.2 477.1L531.32 476.62L531.47 476.15L531.63 475.69L531.82 475.24L532.01 474.8L532.23 474.36L532.46 473.94L532.71 473.52L532.97 473.12L533.25 472.72L533.54 472.34L533.84 471.97L534.16 471.61L534.49 471.27L534.84 470.93L535.2 470.61L535.57 470.31L535.95 470.02L536.34 469.74L536.75 469.48L537.16 469.23L537.59 469L538.02 468.79L538.47 468.59L538.92 468.41L539.38 468.24L539.85 468.1L540.33 467.97L540.81 467.86L541.31 467.77L541.8 467.7L542.31 467.65L542.82 467.62L543.33 467.61L590 467.61L591.03 467.58L592.05 467.52L593.05 467.42L594.05 467.28L595.03 467.1L596 466.88L596.95 466.62L597.89 466.33L598.82 466L599.72 465.64L600.61 465.24L601.48 464.81L602.33 464.35L603.16 463.85L603.97 463.33L604.76 462.78L605.52 462.19L606.26 461.58L606.98 460.94L607.67 460.27L608.34 459.58L608.97 458.87L609.59 458.12L610.17 457.36L610.72 456.57L611.25 455.76L611.74 454.93L612.21 454.08L612.64 453.21L613.03 452.33L613.4 451.42L613.72 450.5L614.02 449.56L614.27 448.61L614.49 447.64L614.67 446.65L614.81 445.66L614.92 444.65L614.98 443.63L615 442.61L615 50L614.98 48.97L614.92 47.95L614.81 46.95L614.67 45.95L614.49 44.97L614.27 44L614.02 43.05L613.72 42.11L613.4 41.19L613.03 40.28L612.64 39.39L612.21 38.52L611.74 37.67L611.25 36.84L610.72 36.03L610.17 35.25L609.59 34.48L608.97 33.74L608.34 33.02L607.67 32.33L606.98 31.67L606.26 31.03L605.52 30.41L604.76 29.83L603.97 29.28L603.16 28.75L602.33 28.26L601.48 27.8L600.61 27.37L599.72 26.97L598.82 26.61L597.89 26.28L596.95 25.99L596 25.73L595.03 25.51L594.05 25.33L593.05 25.19L592.05 25.08L591.03 25.02L590 25L50 25L48.97 25.02L47.95 25.08L46.95 25.19L45.95 25.33L44.97 25.51L44 25.73L43.05 25.99L42.11 26.28L41.18 26.61L40.28 26.97L39.39 27.37L38.52 27.8L37.67 28.26L36.84 28.75L36.03 29.28L35.24 29.83L34.48 30.41L33.74 31.03L33.02 31.67L32.33 32.33L31.66 33.02L31.03 33.74L30.41 34.48L29.83 35.25L29.28 36.03L28.75 36.84L28.26 37.67L27.79 38.52L27.36 39.39L26.97 40.28L26.6 41.19L26.28 42.11L25.98 43.05L25.73 44L25.51 44.97L25.33 45.95L25.19 46.95L25.08 47.95L25.02 48.97L25 50L25 442.61L25.02 443.63L25.08 444.65L25.19 445.66L25.33 446.65L25.51 447.64L25.73 448.61L25.98 449.56L26.28 450.5L26.6 451.42L26.97 452.33L27.36 453.21L27.79 454.08L28.26 454.93L28.75 455.76L29.28 456.57L29.83 457.36L30.41 458.12L31.03 458.87L31.66 459.58L32.33 460.27L33.02 460.94L33.74 461.58L34.48 462.19L35.24 462.78L36.03 463.33L36.84 463.85L37.67 464.35L38.52 464.81L39.39 465.24L40.28 465.64L41.18 466L42.11 466.33L43.05 466.62L44 466.88L44.97 467.1L45.95 467.28L46.95 467.42L47.95 467.52L48.97 467.58L50 467.61L449.59 467.61L450.1 467.62L450.61 467.65L451.11 467.7L451.61 467.77L452.1 467.86L452.59 467.97L453.07 468.1L453.54 468.24L454 468.41L454.45 468.59L454.89 468.79L455.33 469L455.75 469.23L456.17 469.48L456.57 469.74L456.97 470.02L457.35 470.31L457.72 470.61L458.08 470.93L458.42 471.27L458.76 471.61L459.08 471.97L459.38 472.34L459.67 472.72L459.95 473.12L460.21 473.52L460.46 473.94L460.69 474.36L460.9 474.8L461.1 475.24L461.28 475.69L461.45 476.15L461.59 476.62L461.72 477.1L461.83 477.59L461.92 478.08L461.99 478.58L462.04 479.08L462.07 479.59L462.09 480.11L462.07 480.62L462.04 481.13L461.99 481.63L461.92 482.13L461.83 482.62L461.72 483.11L461.59 483.59L461.45 484.06L461.28 484.52L461.1 484.97L460.9 485.41L460.69 485.85L460.46 486.27L460.21 486.69L459.95 487.09L459.67 487.49L459.38 487.87L459.08 488.24L458.76 488.6L458.42 488.94L458.08 489.28L457.72 489.6L457.35 489.9L456.97 490.19L456.57 490.47L456.17 490.73L455.75 490.98L455.33 491.21L454.89 491.42L454.45 491.62L454 491.8L453.54 491.97L453.07 492.11L452.59 492.24L452.1 492.35L451.61 492.44L451.11 492.51L450.61 492.56L450.1 492.59L449.59 492.61L391.25 492.61L391.25 555.16L394.07 555.39L396.87 555.73L399.63 556.18L402.35 556.72L405.04 557.37L407.68 558.12L410.29 558.97L412.85 559.91L415.36 560.94L417.83 562.06L420.25 563.27L422.61 564.57L424.92 565.95L427.18 567.41L429.37 568.96L431.51 570.58L433.58 572.28L435.59 574.05L437.53 575.89L439.4 577.81L441.2 579.79L442.93 581.83L444.59 583.94L446.16 586.12L447.66 588.35L449.07 590.63L450.4 592.98L451.65 595.37L452.81 597.82L453.88 600.32L454.85 602.86L455.74 605.45L456.52 608.07L457.21 610.75L457.8 613.45L458.29 616.2L458.67 618.98L458.94 621.79L459.11 624.63L459.17 627.5L459.16 628.02L459.13 628.53L459.07 629.03L459 629.53L458.91 630.02L458.8 630.5L458.68 630.98L458.53 631.45L458.37 631.91L458.19 632.37L457.99 632.81L457.77 633.24L457.54 633.67L457.29 634.08L457.03 634.49L456.76 634.88L456.46 635.26L456.16 635.63L455.84 635.99L455.51 636.34L455.16 636.67L454.8 636.99L454.43 637.3L454.05 637.59L453.66 637.87L453.25 638.13L452.84 638.37L452.41 638.6L451.98 638.82L451.53 639.02L451.08 639.2L450.62 639.36L450.15 639.51L449.67 639.64L449.19 639.75L448.7 639.84L448.2 639.91L447.69 639.96L447.18 639.99L446.67 640L193.33 640L192.82 639.99L192.31 639.96L191.8 639.91L191.31 639.84L190.81 639.75L190.33 639.64L189.85 639.51L189.38 639.36L188.92 639.2L188.47 639.02L188.02 638.82L187.59 638.6L187.16 638.37L186.75 638.13L186.34 637.87L185.95 637.59L185.57 637.3L185.2 636.99L184.84 636.67L184.49 636.34L184.16 635.99L183.84 635.63L183.54 635.26L183.25 634.88L182.97 634.49L182.71 634.08L182.46 633.67L182.23 633.24L182.01 632.81L181.82 632.37L181.63 631.91L181.47 631.45L181.32 630.98L181.2 630.5L181.09 630.02L181 629.53L180.93 629.03L180.88 628.53L180.84 628.02L180.83 627.5L180.89 624.69L181.05 621.91L181.31 619.16L181.68 616.44L182.14 613.76L182.7 611.1L183.36 608.48L184.12 605.91L184.96 603.37L185.9 600.87L186.92 598.42L188.03 596.02L189.23 593.66L190.51 591.35L191.86 589.1L193.3 586.9L194.81 584.75L196.4 582.66L198.06 580.64L199.79 578.67L201.59 576.77L203.46 574.93L205.39 573.16L207.38 571.47L209.44 569.84L211.55 568.29L213.72 566.81L215.95 565.41L218.23 564.09L220.56 562.85L222.94 561.69L225.37 560.62L227.84 559.63L230.36 558.74L232.91 557.94L235.51 557.22L238.14 556.61L240.81 556.09L243.52 555.67L246.25 555.35L246.25 492.61L50 492.61L47.94 492.56L45.91 492.44L43.89 492.23L41.9 491.95L39.94 491.59L38 491.15L36.09 490.64L34.21 490.05L32.37 489.4L30.56 488.67L28.78 487.88L27.04 487.02L25.34 486.09L23.68 485.1L22.06 484.05L20.49 482.95L18.96 481.78L17.48 480.55L16.04 479.28L14.66 477.94L13.33 476.56L12.05 475.13L10.83 473.64L9.66 472.12L8.55 470.54L7.5 468.92L6.51 467.26L5.59 465.56L4.73 463.82L3.94 462.05L3.21 460.24L2.55 458.39L1.97 456.51L1.46 454.61L1.02 452.67L0.66 450.7L0.37 448.71L0.17 446.7L0.04 444.66L0 442.61L0 50L0.04 47.94L0.17 45.91L0.37 43.89L0.66 41.9L1.02 39.94L1.46 38L1.97 36.09L2.55 34.21L3.21 32.37L3.94 30.56L4.73 28.78L5.59 27.04L6.51 25.34L7.5 23.68L8.55 22.07L9.66 20.49L10.83 18.96L12.05 17.48L13.33 16.05L14.66 14.66L16.04 13.33L17.48 12.05L18.96 10.83L20.49 9.66L22.06 8.55L23.68 7.5L25.34 6.52L27.04 5.59L28.78 4.73L30.56 3.94L32.37 3.21L34.21 2.55L36.09 1.97L38 1.46L39.94 1.02L41.9 0.66L43.89 0.37L45.91 0.17L47.94 0.04L50 0L590 0L592.06 0.04L594.09 0.17ZM251.7 580.03L250.08 580.11L248.47 580.25L246.88 580.44L245.31 580.68L243.75 580.97L242.22 581.31L240.7 581.71L239.2 582.15L237.72 582.64L236.26 583.17L234.83 583.75L233.42 584.38L232.03 585.05L230.67 585.76L229.34 586.52L228.03 587.32L226.75 588.15L225.5 589.03L224.28 589.95L223.09 590.9L221.93 591.89L220.8 592.92L219.71 593.98L218.65 595.07L217.63 596.2L216.64 597.36L215.69 598.56L214.78 599.78L213.91 601.03L213.07 602.31L212.28 603.62L211.53 604.96L210.82 606.32L210.15 607.71L209.53 609.13L208.95 610.56L208.42 612.02L207.94 613.5L207.5 615L432.5 615L432.2 614L431.86 613L431.48 612.01L431.05 611.02L430.58 610.05L430.06 609.08L429.51 608.11L428.91 607.15L428.26 606.2L427.57 605.26L426.84 604.32L426.06 603.39L425.24 602.46L424.38 601.55L423.47 600.64L422.52 599.73L421.53 598.83L420.49 597.94L419.41 597.06L418.29 596.18L417.12 595.31L415.91 594.44L414.66 593.58L413.36 592.73L412.02 591.89L410.63 591.05L409.2 590.21L407.73 589.39L406.21 588.57L404.66 587.76L403.05 586.95L401.41 586.15L399.72 585.36L397.98 584.58L396.2 583.8L394.38 583.02L392.52 582.26L390.61 581.5L388.66 580.75L386.67 580L253.33 580L251.7 580.03ZM271.25 555L366.25 555L366.25 492.61L271.25 492.61L271.25 555Z" id="b5OwNyBJkG"></path><path d="M318.75 427.6C315.46 427.6 312.24 428.94 309.91 431.26C307.59 433.59 306.25 436.81 306.25 440.1C306.25 443.4 307.59 446.61 309.91 448.94C312.24 451.28 315.46 452.6 318.75 452.6C322.04 452.6 325.26 451.28 327.59 448.94C329.91 446.61 331.25 443.4 331.25 440.1C331.25 436.81 329.91 433.59 327.59 431.26C325.26 428.94 322.04 427.6 318.75 427.6Z" id="c1X4kG0qzw"></path><path d="M243.99 167.9C248.87 163.02 248.87 155.1 243.99 150.22C239.11 145.34 231.2 145.34 226.31 150.22C219.3 157.23 163.24 213.3 156.23 220.3C151.35 225.19 151.35 233.1 156.23 237.98C163.24 244.99 219.3 301.06 226.31 308.07C228.75 310.51 231.95 311.73 235.15 311.73C238.35 311.73 241.55 310.51 243.99 308.07C248.87 303.18 248.87 295.27 243.99 290.39C239.91 286.3 219.49 265.89 182.75 229.14C219.49 192.4 239.91 171.98 243.99 167.9Z" id="a8GoKCIbp"></path><path d="M413.69 150.22C408.8 145.34 400.89 145.34 396.01 150.22C391.13 155.1 391.13 163.02 396.01 167.9C400.09 171.98 420.51 192.4 457.25 229.14C420.51 265.89 400.09 286.3 396.01 290.39C391.13 295.27 391.13 303.18 396.01 308.07C398.45 310.51 401.65 311.73 404.85 311.73C408.05 311.73 411.25 310.51 413.69 308.07C420.69 301.06 476.76 244.99 483.77 237.98C488.65 233.1 488.65 225.19 483.77 220.3C469.75 206.29 420.69 157.23 413.69 150.22Z" id="f28HQVNuOG"></path><path d="M326.64 160.75C322.89 174.72 292.96 286.45 289.21 300.41C287.43 307.08 291.39 313.94 298.05 315.72C299.14 316.02 300.23 316.15 301.3 316.15C306.82 316.15 311.87 312.47 313.36 306.89C317.1 292.92 347.04 181.19 350.79 167.22C352.57 160.55 348.62 153.7 341.95 151.91C335.28 150.12 328.42 154.08 326.64 160.75Z" id="d4rMguXNnp"></path><path d="M378.75 50.11C371.85 50.11 366.25 55.7 366.25 62.61C366.25 69.51 371.85 75.11 378.75 75.11C391.17 75.11 453.25 75.11 565 75.11L565 387.61L75 387.61L75 75.11C190.13 75.11 254.08 75.11 266.88 75.11C273.78 75.11 279.38 69.51 279.38 62.61C279.38 55.7 273.78 50.11 266.88 50.11C246.44 50.11 82.94 50.11 62.5 50.11C55.6 50.11 50 55.7 50 62.61C50 96.36 50 366.36 50 400.11C50 407.01 55.6 412.61 62.5 412.61C114 412.61 526 412.61 577.5 412.61C584.4 412.61 590 407.01 590 400.11C590 366.36 590 96.36 590 62.61C590 55.7 584.4 50.11 577.5 50.11C537.75 50.11 398.63 50.11 378.75 50.11Z" id="a1ndAYHf2j"></path><path d="M322.5 50.1C319.21 50.1 315.99 51.44 313.66 53.76C311.34 56.09 310 59.31 310 62.6C310 65.89 311.34 69.11 313.66 71.45C315.99 73.78 319.21 75.1 322.5 75.1C325.79 75.1 329.01 73.78 331.34 71.45C333.66 69.11 335 65.9 335 62.6C335 59.31 333.66 56.09 331.34 53.76C329.01 51.44 325.79 50.1 322.5 50.1Z" id="aagOS0II1"></path></defs><g><g><g><use xlink:href="#fpnmNzOlG" opacity="1" fill="#6761a4" fill-opacity="1"></use><g><use xlink:href="#fpnmNzOlG" opacity="1" fill-opacity="0" stroke="#743838" stroke-width="0" stroke-opacity="1"></use></g></g><g><use xlink:href="#f118eAVLML" opacity="1" fill="#80a461" fill-opacity="1"></use><g><use xlink:href="#f118eAVLML" opacity="1" fill-opacity="0" stroke="#743838" stroke-width="0" stroke-opacity="1"></use></g></g><g><use xlink:href="#d1sDHJ1EJ" opacity="1" fill="#5e929b" fill-opacity="1"></use><g><use xlink:href="#d1sDHJ1EJ" opacity="1" fill-opacity="0" stroke="#8a4d4d" stroke-width="0" stroke-opacity="1"></use></g></g><g><use xlink:href="#aG99kHOx3" opacity="1" fill="#000000" fill-opacity="1"></use><g><use xlink:href="#aG99kHOx3" opacity="1" fill-opacity="0" stroke="#000000" stroke-width="1" stroke-opacity="0"></use></g></g><g><use xlink:href="#b1DdzzjrpI" opacity="1" fill="#ffffff" fill-opacity="1"></use><g><use xlink:href="#b1DdzzjrpI" opacity="1" fill-opacity="0" stroke="#743838" stroke-width="0" stroke-opacity="1"></use></g></g><g><use xlink:href="#b5OwNyBJkG" opacity="1" fill="#000000" fill-opacity="1"></use><g><use xlink:href="#b5OwNyBJkG" opacity="1" fill-opacity="0" stroke="#000000" stroke-width="1" stroke-opacity="0"></use></g></g><g><use xlink:href="#c1X4kG0qzw" opacity="1" fill="#000000" fill-opacity="1"></use><g><use xlink:href="#c1X4kG0qzw" opacity="1" fill-opacity="0" stroke="#000000" stroke-width="1" stroke-opacity="0"></use></g></g><g><use xlink:href="#a8GoKCIbp" opacity="1" fill="#000000" fill-opacity="1"></use><g><use xlink:href="#a8GoKCIbp" opacity="1" fill-opacity="0" stroke="#000000" stroke-width="1" stroke-opacity="0"></use></g></g><g><use xlink:href="#f28HQVNuOG" opacity="1" fill="#000000" fill-opacity="1"></use><g><use xlink:href="#f28HQVNuOG" opacity="1" fill-opacity="0" stroke="#000000" stroke-width="1" stroke-opacity="0"></use></g></g><g><use xlink:href="#d4rMguXNnp" opacity="1" fill="#000000" fill-opacity="1"></use><g><use xlink:href="#d4rMguXNnp" opacity="1" fill-opacity="0" stroke="#000000" stroke-width="1" stroke-opacity="0"></use></g></g><g><use xlink:href="#a1ndAYHf2j" opacity="1" fill="#000000" fill-opacity="1"></use><g><use xlink:href="#a1ndAYHf2j" opacity="1" fill-opacity="0" stroke="#000000" stroke-width="1" stroke-opacity="0"></use></g></g><g><use xlink:href="#aagOS0II1" opacity="1" fill="#000000" fill-opacity="1"></use><g><use xlink:href="#aagOS0II1" opacity="1" fill-opacity="0" stroke="#000000" stroke-width="1" stroke-opacity="0"></use></g></g></g></g></svg>