<?xml version="1.0" encoding="iso-8859-1"?>
<!-- Generator: Adobe Illustrator 19.0.0, SVG Export Plug-In . SVG Version: 6.00 Build 0)  -->
<svg version="1.1" id="Capa_1" xmlns="http://www.w3.org/2000/svg" xmlns:xlink="http://www.w3.org/1999/xlink" x="0px" y="0px"
	 viewBox="0 0 512 512" style="enable-background:new 0 0 512 512;" xml:space="preserve">
<circle style="fill:#FFFFFF;" cx="256" cy="256" r="246"/>
<circle style="fill:#FF5A5A;" cx="199.49" cy="359.07" r="64.83"/>
<path d="M264.317,237.839c-5.523,0-10,4.477-10,10v60.377c-13.675-14.734-33.189-23.978-54.83-23.978
	c-41.261,0-74.83,33.568-74.83,74.83s33.569,74.83,74.83,74.83s74.83-33.568,74.83-74.83V247.839
	C274.317,242.316,269.84,237.839,264.317,237.839z M199.488,413.896c-30.233,0-54.83-24.597-54.83-54.83s24.597-54.83,54.83-54.83
	s54.83,24.597,54.83,54.83S229.721,413.896,199.488,413.896z"/>
<path d="M256,512c-68.38,0-132.667-26.628-181.019-74.981C26.628,388.667,0,324.38,0,256S26.628,123.333,74.981,74.981
	C123.333,26.628,187.62,0,256,0s132.667,26.628,181.019,74.981C485.372,123.333,512,187.62,512,256s-26.628,132.667-74.981,181.019
	C388.667,485.372,324.38,512,256,512z M256,20C125.869,20,20,125.869,20,256s105.869,236,236,236s236-105.869,236-236
	S386.131,20,256,20z"/>
<path d="M264.317,221.839c-2.63,0-5.21-1.07-7.07-2.93c-1.86-1.86-2.93-4.44-2.93-7.07c0-2.64,1.07-5.21,2.93-7.07
	c1.86-1.87,4.43-2.93,7.07-2.93c2.63,0,5.21,1.06,7.07,2.93c1.86,1.86,2.93,4.43,2.93,7.07c0,2.63-1.07,5.21-2.93,7.07
	S266.947,221.839,264.317,221.839z"/>
<path style="fill:#FF5A5A;" d="M378.493,223.581l-13.027-13.027c-12.191-12.191-28.725-19.04-45.966-19.04h-9.211
	c-17.241,0-33.775-6.849-45.966-19.04l0,0v-64.635l0,0c12.191,12.191,28.725,19.04,45.966,19.04h9.211
	c17.241,0,33.775,6.849,45.966,19.04l0,0c8.341,8.341,13.027,28.172,13.027,39.968V223.581z"/>
<path d="M378.495,233.581c-2.603,0-5.16-1.016-7.073-2.929l-13.027-13.027c-10.389-10.389-24.202-16.111-38.895-16.111h-9.21
	c-20.035,0-38.87-7.802-53.037-21.968c-1.875-1.875-2.929-4.419-2.929-7.071V107.84c0-4.044,2.437-7.691,6.173-9.239
	c3.737-1.549,8.038-0.692,10.898,2.167c10.39,10.389,24.203,16.111,38.896,16.111h9.21c20.035,0,38.871,7.802,53.038,21.969
	c11.005,11.006,15.956,34.133,15.956,47.04v37.694c0,4.044-2.437,7.691-6.173,9.239
	C381.083,233.332,379.783,233.581,378.495,233.581z M274.323,168.13c9.99,8.658,22.615,13.383,35.966,13.383h9.21
	c18.184,0,35.38,6.427,48.994,18.206v-13.833c0-10.543-4.411-27.21-10.099-32.897c-10.389-10.39-24.203-16.111-38.895-16.111h-9.21
	c-12.776,0-25.065-3.173-35.966-9.146V168.13z"/>
<g>
</g>
<g>
</g>
<g>
</g>
<g>
</g>
<g>
</g>
<g>
</g>
<g>
</g>
<g>
</g>
<g>
</g>
<g>
</g>
<g>
</g>
<g>
</g>
<g>
</g>
<g>
</g>
<g>
</g>
</svg>
