<?xml version="1.0" encoding="UTF-8" standalone="no"?>
<!DOCTYPE svg PUBLIC "-//W3C//DTD SVG 1.1//EN" "http://www.w3.org/Graphics/SVG/1.1/DTD/svg11.dtd">
<svg version="1.1" xmlns="http://www.w3.org/2000/svg" xmlns:xlink="http://www.w3.org/1999/xlink" preserveAspectRatio="xMidYMid meet" viewBox="0 0 640 640" width="640" height="640"><defs><path d="M12.77 563.5L23.77 595.5L65.77 628.5L512.48 628.5L557.77 604.5L577.77 555.5L499.98 555.5L499.98 12.5L12.77 12.5L12.77 563.5Z" id="cdgZHToAt"></path><path d="M453 208.5L484 256.5L453 287.5L387 208.5L453 147.5L453 208.5Z" id="a1dFNSZ3th"></path><path d="M570 103.5L589.73 147.5L535 197.5L512.48 139.5L505 88.5L561 44.5L570 103.5Z" id="jOA44XzMm"></path><path d="M508 92.5L508 169.5L535 208.5L484 252.5L463.05 217.89L453 150.5L508 92.5Z" id="anGwGPUqH"></path><path d="M245 332.5L281 365.5L318.85 424.5L364 446.5L394.42 408.5L400 347.5L318.85 266.5L245 274.5L205 323.5L245 332.5Z" id="j3PqrIuNpa"></path><path d="M200 422.5L186 484.5L285 484.5L355 449.5L298 391.5L252 332.5L200 332.5L200 422.5Z" id="a4h3NC5MN"></path><path d="M580.73 25.51L583.18 25.75L585.63 26.08L588.07 26.5L590.49 27.02L592.89 27.63L595.28 28.33L597.64 29.13L599.97 30.02L602.27 31L604.54 32.08L606.78 33.26L608.98 34.52L611.13 35.89L613.25 37.34L615.31 38.89L617.33 40.53L619.29 42.27L621.2 44.1L622.09 45.02L622.97 45.95L623.83 46.89L624.67 47.85L625.48 48.83L626.28 49.81L627.05 50.82L627.81 51.83L628.54 52.86L629.25 53.9L629.94 54.95L630.6 56.01L631.25 57.09L631.87 58.17L632.47 59.27L633.05 60.38L633.61 61.5L634.14 62.63L634.66 63.76L635.14 64.91L635.61 66.07L636.05 67.24L636.48 68.41L636.87 69.6L637.25 70.79L637.6 71.99L637.93 73.2L638.23 74.42L638.51 75.64L638.77 76.87L639 78.11L639.21 79.35L639.39 80.6L639.55 81.86L639.69 83.12L639.8 84.38L639.89 85.66L639.95 86.93L639.99 88.21L640 89.5L639.99 90.78L639.95 92.06L639.89 93.33L639.8 94.61L639.69 95.87L639.55 97.13L639.39 98.39L639.21 99.64L639 100.88L638.77 102.12L638.51 103.35L638.23 104.57L637.93 105.79L637.6 107L637.25 108.2L636.87 109.39L636.48 110.58L636.05 111.75L635.61 112.92L635.14 114.08L634.66 115.23L634.14 116.36L633.61 117.49L633.05 118.61L632.47 119.72L631.87 120.82L631.25 121.9L630.6 122.98L629.94 124.04L629.25 125.09L628.54 126.13L627.81 127.16L627.05 128.17L626.28 129.18L625.48 130.16L624.67 131.14L623.83 132.1L622.97 133.04L622.09 133.98L621.19 134.89L410.03 346.06L410.54 348.84L410.99 351.62L411.37 354.41L411.68 357.2L411.92 360L412.1 362.79L412.2 365.58L412.24 368.37L412.21 371.15L412.12 373.93L411.95 376.71L411.73 379.48L411.43 382.24L411.07 384.99L410.65 387.73L410.16 390.45L409.61 393.17L408.99 395.86L408.31 398.55L407.56 401.21L406.76 403.86L405.89 406.49L404.95 409.1L403.96 411.68L402.9 414.25L401.78 416.78L400.61 419.3L399.37 421.78L398.07 424.24L396.7 426.67L395.28 429.07L393.81 431.43L392.27 433.77L390.67 436.07L389.01 438.33L387.3 440.56L385.53 442.74L383.7 444.89L381.81 447L379.87 449.07L379.85 449.1L379.82 449.12L379.8 449.15L379.78 449.18L379.75 449.2L379.73 449.23L379.71 449.25L379.69 449.28L379.66 449.31L379.64 449.33L379.62 449.36L379.59 449.38L379.57 449.41L379.54 449.43L379.52 449.46L379.5 449.48L379.47 449.51L379.45 449.53L379.43 449.56L379.4 449.58L379.38 449.61L379.35 449.63L379.33 449.66L379.3 449.68L379.28 449.71L379.26 449.73L379.23 449.76L379.21 449.78L379.18 449.8L379.16 449.83L379.13 449.85L379.11 449.88L379.08 449.9L379.06 449.92L379.03 449.95L379.01 449.97L378.98 450L378.96 450.02L378.93 450.04L378.91 450.07L378.89 450.08L378.87 450.11L378.84 450.14L378.83 450.15L378.81 450.16L378.8 450.18L378.76 450.22L378.73 450.25L378.69 450.29L378.65 450.33L378.61 450.37L378.59 450.4L378.55 450.44L378.53 450.46L378.52 450.47L378.49 450.5L378.47 450.53L378.45 450.54L378.44 450.55L378.43 450.57L378.4 450.59L378.38 450.61L378.37 450.62L375.94 452.99L373.47 455.31L370.94 457.56L368.36 459.76L365.74 461.89L363.06 463.96L360.34 465.98L357.57 467.93L354.74 469.83L351.87 471.66L348.95 473.44L345.98 475.15L342.97 476.81L339.9 478.4L336.79 479.94L333.62 481.41L330.41 482.83L327.15 484.18L323.85 485.48L320.49 486.71L317.09 487.89L313.63 489L310.13 490.05L306.59 491.05L302.99 491.98L299.35 492.86L295.65 493.67L291.92 494.42L288.13 495.12L284.3 495.75L280.41 496.32L276.49 496.84L272.51 497.29L268.49 497.68L264.42 498.01L260.3 498.29L256.14 498.5L251.93 498.65L247.67 498.74L243.36 498.77L241.93 498.77L240.49 498.76L239.05 498.74L237.61 498.72L236.15 498.69L234.7 498.65L233.23 498.61L231.77 498.56L230.29 498.5L228.82 498.44L227.33 498.37L225.85 498.29L224.35 498.21L222.85 498.12L221.35 498.03L219.84 497.92L218.33 497.82L216.81 497.7L215.29 497.58L213.76 497.45L212.23 497.31L210.69 497.17L209.15 497.02L207.6 496.87L206.05 496.71L204.49 496.54L202.92 496.36L201.36 496.18L199.78 496L198.2 495.8L196.62 495.6L195.03 495.39L193.44 495.18L191.84 494.96L190.24 494.73L188.63 494.49L187.02 494.25L185.4 494.01L183.77 493.75L182.15 493.49L181.86 493.44L181.57 493.38L181.29 493.32L181.01 493.25L180.73 493.18L180.45 493.09L180.18 493.01L179.91 492.91L179.64 492.81L179.37 492.71L179.11 492.59L178.85 492.48L178.59 492.35L178.34 492.22L178.09 492.09L177.84 491.95L177.59 491.8L177.35 491.65L177.12 491.49L176.88 491.33L176.65 491.16L176.43 490.99L176.2 490.81L175.99 490.62L175.77 490.44L175.56 490.24L175.36 490.04L175.16 489.84L174.96 489.63L174.77 489.42L174.58 489.2L174.4 488.98L174.22 488.76L174.05 488.53L173.88 488.29L173.72 488.05L173.56 487.81L173.41 487.56L173.26 487.31L173.12 487.05L172.99 486.79L172.86 486.53L172.74 486.27L172.62 486L172.51 485.74L172.41 485.47L172.31 485.2L172.22 484.92L172.14 484.65L172.06 484.37L171.99 484.1L171.93 483.82L171.87 483.54L171.82 483.26L171.78 482.98L171.74 482.69L171.71 482.41L171.68 482.13L171.66 481.84L171.65 481.56L171.64 481.27L171.64 480.99L171.65 480.7L171.66 480.42L171.68 480.14L171.71 479.85L171.74 479.57L171.78 479.28L171.83 479L171.88 478.72L171.94 478.44L172.01 478.16L172.08 477.88L172.16 477.61L172.24 477.33L172.33 477.06L172.43 476.78L172.54 476.51L172.65 476.24L172.77 475.98L173.87 473.5L174.91 471.04L175.88 468.6L176.8 466.19L177.66 463.79L178.47 461.42L179.22 459.07L179.92 456.74L180.56 454.42L181.16 452.13L181.71 449.85L182.21 447.59L182.67 445.35L183.08 443.13L183.45 440.92L183.78 438.72L184.08 436.54L184.34 434.38L184.56 432.23L184.75 430.1L184.9 427.97L185.03 425.86L185.12 423.77L185.19 421.68L185.24 419.61L185.26 417.54L185.26 415.49L185.23 413.45L185.19 411.41L185.13 409.39L185.06 407.37L184.97 405.36L184.87 403.36L184.76 401.36L184.63 399.37L184.5 397.39L184.37 395.41L184.23 393.44L184.08 391.47L183.94 389.51L183.75 387.04L183.58 384.57L183.4 382.09L183.24 379.61L183.09 377.12L182.96 374.63L182.86 372.14L182.77 369.64L182.72 367.13L182.69 364.62L182.7 362.11L182.76 359.59L182.85 357.07L182.99 354.54L183.18 352.01L183.42 349.47L183.73 346.93L184.09 344.38L184.51 341.82L185.01 339.27L185.57 336.7L186.21 334.13L186.93 331.56L187.73 328.98L188.62 326.39L189.6 323.8L190.67 321.21L191.83 318.6L193.1 316L194.47 313.38L195.95 310.76L197.54 308.14L199.24 305.51L201.06 302.87L203.01 300.23L205.07 297.58L207.27 294.92L209.6 292.26L212.07 289.59L214.67 286.92L216.75 284.9L218.87 282.93L221.03 281.03L223.23 279.18L225.48 277.4L227.76 275.67L230.08 274.01L232.44 272.4L234.83 270.86L237.25 269.38L239.71 267.96L242.2 266.6L244.72 265.3L247.27 264.07L249.84 262.9L252.44 261.8L255.06 260.76L257.71 259.78L260.38 258.87L263.07 258.02L265.78 257.24L268.51 256.52L271.26 255.87L274.02 255.29L276.79 254.77L279.58 254.32L282.38 253.94L285.19 253.62L288.01 253.38L290.83 253.2L293.67 253.09L296.51 253.05L299.35 253.08L302.19 253.18L305.04 253.35L307.88 253.59L310.73 253.9L313.57 254.29L316.4 254.74L319.24 255.27L473.33 101.18L473.33 101.17L473.33 101.17L473.34 101.16L528.49 46.01L528.5 46L528.5 46L528.51 45.99L530.4 44.1L532.31 42.27L534.27 40.53L536.29 38.89L538.35 37.34L540.46 35.89L542.62 34.52L544.82 33.26L547.05 32.08L549.33 31L551.63 30.02L553.96 29.13L556.32 28.33L558.71 27.63L561.11 27.02L563.53 26.5L565.97 26.08L568.41 25.75L570.87 25.51L573.33 25.37L575.8 25.33L578.26 25.37L580.73 25.51ZM227.17 342.77L226.05 342.84L224.96 342.94L223.9 343.06L222.86 343.21L221.84 343.37L220.86 343.55L219.9 343.75L218.98 343.96L218.09 344.19L217.23 344.42L216.41 344.65L215.62 344.9L214.87 345.14L214.16 345.38L213.48 345.63L212.85 345.87L212.26 346.1L211.72 346.32L211.22 346.54L210.76 346.74L210.36 346.92L210 347.09L209.69 347.24L209.43 347.37L209.23 347.48L209.08 347.56L208.98 347.61L208.94 347.63L208.94 347.63L208.93 347.64L208.92 347.65L208.91 347.65L208.88 347.66L208.87 347.67L208.84 347.68L208.82 347.69L208.81 347.7L208.8 347.7L208.78 347.71L208.78 347.72L208.64 348.64L208.51 349.57L208.39 350.49L208.28 351.42L208.18 352.36L208.09 353.29L208 354.23L207.93 355.17L207.87 356.12L207.81 357.07L207.77 358.02L207.73 358.97L207.7 359.93L207.68 360.9L207.66 361.86L207.65 362.83L207.65 363.81L207.65 364.79L207.66 365.77L207.68 366.76L207.7 367.75L207.73 368.75L207.76 369.75L207.8 370.76L207.84 371.77L207.89 372.79L207.94 373.81L208 374.84L208.06 375.88L208.12 376.92L208.18 377.96L208.25 379.02L208.32 380.07L208.39 381.14L208.47 382.21L208.55 383.29L208.63 384.37L208.7 385.46L208.79 386.56L208.87 387.66L209 389.48L209.14 391.31L209.27 393.16L209.4 395.01L209.52 396.87L209.64 398.75L209.76 400.64L209.86 402.54L209.96 404.45L210.04 406.38L210.12 408.31L210.18 410.26L210.22 412.23L210.26 414.2L210.27 416.2L210.27 418.2L210.25 420.22L210.2 422.25L210.14 424.3L210.05 426.36L209.94 428.44L209.81 430.53L209.65 432.64L209.45 434.76L209.24 436.9L208.99 439.06L208.71 441.23L208.39 443.41L208.04 445.62L207.66 447.84L207.24 450.08L206.78 452.33L206.29 454.61L205.75 456.9L205.17 459.21L204.55 461.54L203.89 463.88L203.18 466.25L202.42 468.63L201.62 471.04L205.97 471.55L210.27 472.01L214.53 472.42L218.74 472.78L222.91 473.08L227.03 473.33L231.11 473.52L235.14 473.66L239.13 473.74L243.07 473.77L246.97 473.75L250.82 473.67L254.63 473.54L258.38 473.35L262.1 473.11L265.77 472.82L269.39 472.47L272.96 472.07L276.49 471.62L279.98 471.11L283.41 470.54L286.8 469.93L290.15 469.26L293.45 468.53L296.7 467.75L299.91 466.92L303.07 466.04L306.18 465.1L309.24 464.1L312.26 463.06L315.23 461.96L318.16 460.8L321.04 459.59L323.87 458.33L326.65 457.02L329.39 455.65L332.08 454.22L334.72 452.75L337.32 451.22L339.87 449.64L339.79 449.61L339.71 449.58L339.64 449.56L339.56 449.53L339.49 449.51L339.41 449.48L339.33 449.46L339.26 449.43L339.18 449.4L339.1 449.38L339.03 449.35L338.95 449.33L338.87 449.3L338.8 449.27L338.72 449.25L338.64 449.22L338.56 449.19L338.49 449.17L338.41 449.14L338.33 449.11L338.26 449.09L338.18 449.06L338.1 449.03L338.03 449L337.95 448.98L337.87 448.95L337.79 448.92L337.72 448.89L337.64 448.87L337.56 448.84L337.48 448.81L337.41 448.78L337.33 448.75L337.25 448.72L337.17 448.7L337.09 448.67L337.02 448.64L336.94 448.61L336.86 448.58L336.78 448.55L335.48 448.05L334.15 447.51L332.8 446.93L331.43 446.32L330.04 445.66L328.63 444.96L327.21 444.23L325.77 443.44L324.31 442.62L322.85 441.75L321.37 440.83L319.88 439.86L318.38 438.84L316.88 437.77L315.37 436.65L313.85 435.48L312.34 434.25L310.82 432.97L309.3 431.62L307.78 430.22L306.26 428.77L304.75 427.25L303.24 425.66L301.74 424.02L300.24 422.31L298.76 420.53L297.28 418.69L295.82 416.78L294.37 414.8L292.93 412.75L291.51 410.62L290.11 408.43L288.73 406.16L287.36 403.81L286.02 401.39L284.7 398.88L283.41 396.3L282.14 393.64L280.89 390.9L279.68 388.07L278.93 386.31L278.17 384.58L277.4 382.89L276.62 381.23L275.83 379.6L275.03 378.01L274.21 376.46L273.39 374.94L272.56 373.45L271.72 372L270.87 370.58L270 369.2L269.13 367.85L268.25 366.54L267.36 365.26L266.45 364.01L265.54 362.8L264.62 361.63L263.69 360.49L262.74 359.39L261.79 358.32L260.83 357.28L259.86 356.28L258.88 355.32L257.89 354.39L256.89 353.5L255.88 352.64L254.86 351.81L253.83 351.03L252.79 350.27L251.74 349.56L250.68 348.87L249.62 348.23L248.54 347.62L247.45 347.04L246.36 346.5L245.26 346L244.14 345.53L243.02 345.09L241.89 344.7L240.59 344.29L239.31 343.93L238.03 343.63L236.76 343.37L235.51 343.16L234.27 342.99L233.04 342.86L231.83 342.77L230.63 342.72L229.46 342.7L228.3 342.72L227.17 342.77ZM291.65 278.18L289.37 278.33L287.1 278.54L284.84 278.81L282.59 279.13L280.34 279.51L278.11 279.95L275.89 280.44L273.68 280.98L271.49 281.58L269.31 282.24L267.15 282.95L265 283.71L262.88 284.52L260.78 285.39L258.69 286.31L256.63 287.29L254.59 288.32L252.58 289.39L250.59 290.52L248.63 291.7L246.69 292.94L244.79 294.22L242.91 295.55L241.07 296.94L239.26 298.37L237.48 299.85L235.73 301.39L234.02 302.97L232.35 304.6L232 304.95L231.66 305.3L231.31 305.64L230.98 305.99L230.64 306.34L230.31 306.69L229.98 307.04L229.65 307.38L229.33 307.73L229.01 308.07L228.69 308.42L228.38 308.76L228.07 309.11L227.76 309.45L227.45 309.8L227.15 310.14L226.85 310.48L226.55 310.83L226.26 311.17L225.97 311.51L225.68 311.85L225.4 312.19L225.12 312.54L224.84 312.88L224.56 313.22L224.29 313.56L224.02 313.9L223.75 314.24L223.48 314.58L223.22 314.91L222.96 315.25L222.7 315.59L222.45 315.93L222.2 316.27L221.95 316.61L221.7 316.94L221.46 317.28L221.22 317.62L220.98 317.95L220.74 318.29L221.38 318.21L222.02 318.14L222.67 318.07L223.32 318L223.98 317.95L224.65 317.9L225.32 317.85L225.99 317.81L226.68 317.78L227.36 317.75L228.05 317.73L228.75 317.72L229.45 317.72L230.15 317.72L230.86 317.73L231.57 317.75L232.29 317.77L233.02 317.81L233.74 317.85L234.47 317.9L235.21 317.96L235.95 318.03L236.69 318.11L237.44 318.2L238.19 318.29L238.94 318.4L239.7 318.51L240.46 318.64L241.22 318.77L241.99 318.92L242.76 319.08L243.53 319.24L244.3 319.42L245.08 319.61L245.86 319.81L246.65 320.02L247.43 320.25L248.22 320.48L249.01 320.73L249.8 320.99L251.47 321.57L253.11 322.19L254.74 322.86L256.36 323.58L257.95 324.33L259.53 325.14L261.09 325.98L262.64 326.88L264.17 327.81L265.68 328.79L267.17 329.81L268.64 330.88L270.1 331.99L271.54 333.15L272.97 334.35L274.37 335.59L275.76 336.88L277.13 338.21L278.48 339.58L279.82 341L281.14 342.46L282.44 343.96L283.72 345.51L284.98 347.1L286.23 348.74L287.46 350.41L288.67 352.14L289.86 353.9L291.03 355.71L292.19 357.56L293.33 359.45L294.45 361.39L295.55 363.37L296.63 365.39L297.69 367.46L298.74 369.56L299.77 371.71L300.78 373.91L301.77 376.14L302.74 378.42L304.21 381.82L305.73 385.06L307.29 388.15L308.89 391.09L310.52 393.89L312.17 396.54L313.86 399.06L315.57 401.45L317.3 403.71L319.05 405.84L320.82 407.85L322.59 409.73L324.38 411.51L326.17 413.17L327.96 414.72L329.76 416.17L331.55 417.52L333.33 418.77L335.1 419.92L336.86 420.99L338.61 421.97L340.33 422.86L342.03 423.68L343.71 424.42L345.36 425.08L346.98 425.68L348.56 426.21L350.11 426.68L351.61 427.09L353.07 427.45L354.49 427.75L355.85 428.01L357.16 428.23L358.42 428.4L359.61 428.53L360.75 428.64L361.81 428.71L362.81 428.76L363.74 428.78L364.59 428.79L366.01 427.13L367.39 425.45L368.72 423.74L370.01 422L371.25 420.24L372.45 418.45L373.61 416.63L374.72 414.79L375.78 412.92L376.8 411.04L377.77 409.13L378.7 407.2L379.58 405.25L380.41 403.28L381.2 401.29L381.94 399.29L382.64 397.27L383.28 395.23L383.88 393.18L384.43 391.12L384.93 389.05L385.39 386.96L385.79 384.86L386.15 382.76L386.45 380.64L386.71 378.52L386.92 376.39L387.08 374.25L387.18 372.11L387.24 369.96L387.25 367.81L387.2 365.66L387.11 363.51L386.96 361.35L386.76 359.2L386.51 357.05L386.21 354.9L385.86 352.75L385.45 350.61L384.99 348.47L316.82 280.3L314.55 279.81L312.26 279.39L309.98 279.02L307.69 278.71L305.39 278.46L303.1 278.26L300.8 278.13L298.51 278.06L296.22 278.04L293.93 278.08L291.65 278.18ZM396.3 324.43L436.23 284.5L380.79 229.06L340.86 268.99L396.3 324.43ZM453.91 266.83L466.07 254.67L464.81 253.12L463.58 251.56L462.38 249.98L461.21 248.39L460.07 246.77L458.96 245.14L457.88 243.49L456.83 241.83L455.81 240.15L454.82 238.45L453.86 236.74L452.93 235.01L452.03 233.27L451.16 231.52L450.32 229.75L449.52 227.96L448.74 226.17L448 224.36L447.29 222.53L446.61 220.7L445.96 218.85L445.34 216.99L444.76 215.12L444.2 213.24L443.68 211.35L443.2 209.44L442.74 207.53L442.32 205.61L441.93 203.68L441.57 201.74L441.25 199.79L440.96 197.83L440.71 195.86L440.48 193.89L440.3 191.91L440.14 189.92L440.02 187.93L439.94 185.93L439.88 183.92L439.87 181.91L439.87 181.59L439.87 181.27L439.87 180.95L439.87 180.64L439.88 180.32L439.88 180L439.89 179.68L439.9 179.36L439.9 179.04L439.91 178.73L439.92 178.41L439.93 178.09L439.95 177.78L439.96 177.46L439.97 177.14L439.99 176.83L440 176.51L440.02 176.19L440.03 175.88L440.05 175.56L440.07 175.24L440.09 174.93L440.11 174.61L440.13 174.3L440.15 173.98L440.18 173.67L440.2 173.35L440.22 173.04L440.25 172.72L440.27 172.41L440.3 172.09L440.33 171.78L440.36 171.47L440.39 171.15L440.42 170.84L440.45 170.53L440.48 170.21L440.51 169.9L440.54 169.59L440.58 169.27L398.47 211.39L453.91 266.83ZM489.76 120.12L488.54 121.41L487.35 122.73L486.18 124.06L485.05 125.42L483.94 126.79L482.87 128.18L481.82 129.59L480.8 131.02L479.81 132.46L478.86 133.92L477.93 135.4L477.03 136.89L476.17 138.4L475.33 139.93L474.52 141.47L473.75 143.02L473.01 144.59L472.3 146.17L471.62 147.77L470.97 149.38L470.35 151L469.77 152.64L469.21 154.28L468.69 155.94L468.21 157.61L467.75 159.29L467.33 160.97L466.94 162.67L466.58 164.38L466.26 166.1L465.97 167.83L465.71 169.56L465.49 171.31L465.3 173.06L465.14 174.81L465.02 176.58L464.94 178.35L464.88 180.13L464.87 181.91L464.88 182.93L464.91 183.96L464.97 185.02L465.06 186.09L465.16 187.18L465.29 188.29L465.45 189.42L465.63 190.57L465.83 191.73L466.05 192.91L466.3 194.11L466.58 195.33L466.87 196.57L467.19 197.83L467.54 199.1L467.9 200.39L468.3 201.7L468.71 203.03L469.15 204.38L469.61 205.74L470.1 207.12L470.61 208.53L471.14 209.95L471.7 211.38L472.28 212.84L472.89 214.32L473.52 215.81L474.17 217.32L474.85 218.85L475.55 220.4L476.27 221.96L477.02 223.55L477.79 225.15L478.59 226.77L479.4 228.41L480.25 230.07L481.11 231.74L482 233.44L482.92 235.15L483.86 236.88L521.24 199.5L519.98 197.96L518.75 196.39L517.55 194.82L516.38 193.22L515.24 191.6L514.13 189.97L513.05 188.33L512 186.66L510.98 184.98L509.99 183.28L509.03 181.57L508.1 179.85L507.2 178.1L506.33 176.35L505.49 174.58L504.69 172.79L503.91 171L503.17 169.19L502.46 167.36L501.77 165.53L501.13 163.68L500.51 161.82L499.93 159.95L499.37 158.07L498.85 156.18L498.37 154.28L497.91 152.36L497.49 150.44L497.1 148.51L496.74 146.57L496.42 144.62L496.13 142.66L495.88 140.7L495.65 138.72L495.47 136.74L495.31 134.75L495.19 132.76L495.11 130.76L495.05 128.75L495.04 126.74L495.04 126.42L495.04 126.1L495.04 125.78L495.04 125.47L495.05 125.15L495.05 124.83L495.06 124.51L495.07 124.19L495.07 123.88L495.08 123.56L495.09 123.24L495.1 122.92L495.12 122.61L495.13 122.29L495.14 121.97L495.16 121.66L495.17 121.34L495.19 121.02L495.2 120.71L495.22 120.39L495.24 120.08L495.26 119.76L495.28 119.44L495.3 119.13L495.32 118.81L495.35 118.5L495.37 118.18L495.39 117.87L495.42 117.55L495.44 117.24L495.47 116.93L495.5 116.61L495.53 116.3L495.56 115.98L495.59 115.67L495.62 115.36L495.65 115.04L495.68 114.73L495.71 114.42L495.75 114.1L491.01 118.84L489.76 120.12ZM550.68 59.39L550.61 59.45L550.54 59.51L550.47 59.57L550.4 59.63L550.33 59.69L550.26 59.75L550.19 59.81L550.12 59.87L550.05 59.93L549.98 59.99L549.91 60.06L549.84 60.12L549.77 60.18L549.7 60.24L549.63 60.3L549.57 60.36L549.5 60.43L549.43 60.49L549.36 60.55L549.29 60.61L549.22 60.68L549.15 60.74L549.09 60.8L549.02 60.87L548.95 60.93L548.88 60.99L548.82 61.06L548.75 61.12L548.68 61.19L548.61 61.25L548.55 61.31L548.48 61.38L548.41 61.44L548.35 61.51L548.28 61.58L548.21 61.64L548.15 61.71L548.08 61.77L546.18 63.67L544.93 64.94L543.71 66.24L542.52 67.55L541.35 68.89L540.22 70.24L539.11 71.62L538.04 73.01L536.99 74.42L535.97 75.84L534.98 77.29L534.03 78.75L533.1 80.23L532.2 81.72L531.33 83.23L530.5 84.76L529.69 86.3L528.92 87.85L528.18 89.42L527.47 91L526.78 92.6L526.14 94.21L525.52 95.83L524.93 97.46L524.38 99.11L523.86 100.77L523.37 102.44L522.92 104.11L522.49 105.8L522.11 107.5L521.75 109.21L521.42 110.93L521.13 112.66L520.88 114.39L520.65 116.14L520.47 117.89L520.31 119.64L520.19 121.41L520.1 123.18L520.05 124.96L520.03 126.74L520.05 127.76L520.08 128.8L520.14 129.85L520.22 130.92L520.33 132.01L520.46 133.12L520.62 134.25L520.79 135.4L521 136.56L521.22 137.74L521.47 138.94L521.74 140.16L522.04 141.4L522.36 142.66L522.7 143.93L523.07 145.22L523.46 146.53L523.88 147.86L524.32 149.21L524.78 150.57L525.27 151.96L525.78 153.36L526.31 154.78L526.87 156.22L527.45 157.67L528.06 159.15L528.69 160.64L529.34 162.15L530.01 163.68L530.71 165.23L531.44 166.79L532.19 168.38L532.96 169.98L533.75 171.6L534.57 173.24L535.41 174.9L536.28 176.57L537.17 178.27L538.08 179.98L539.02 181.71L576.41 144.33L574.94 142.52L573.51 140.68L572.12 138.83L570.77 136.95L569.46 135.04L568.2 133.12L566.98 131.18L565.79 129.21L564.65 127.22L563.55 125.22L562.5 123.2L561.48 121.16L560.51 119.1L559.58 117.02L558.69 114.93L557.85 112.82L557.05 110.7L556.29 108.57L555.58 106.42L554.91 104.26L554.28 102.08L553.69 99.9L553.15 97.7L552.66 95.49L552.2 93.27L551.8 91.05L551.43 88.81L551.11 86.57L550.84 84.32L550.61 82.06L550.43 79.8L550.29 77.53L550.2 75.26L550.15 72.98L550.15 70.7L550.19 68.42L550.28 66.14L550.42 63.85L550.6 61.56L550.83 59.28L550.76 59.33L550.68 59.39ZM576.78 54.81L576.37 57.05L576.03 59.29L575.74 61.53L575.51 63.78L575.34 66.02L575.22 68.26L575.17 70.5L575.16 72.74L575.22 74.97L575.33 77.2L575.5 79.42L575.72 81.64L575.99 83.84L576.33 86.04L576.71 88.23L577.16 90.4L577.65 92.56L578.2 94.71L578.81 96.85L579.46 98.97L580.18 101.08L580.94 103.17L581.76 105.24L582.63 107.29L583.55 109.32L584.53 111.33L585.55 113.32L586.63 115.29L587.76 117.23L588.95 119.15L590.18 121.04L591.46 122.9L592.8 124.74L594.18 126.55L603.52 117.21L604.13 116.59L604.72 115.96L605.3 115.31L605.86 114.66L606.41 113.99L606.94 113.32L607.46 112.63L607.95 111.94L608.44 111.23L608.9 110.52L609.35 109.79L609.79 109.06L610.2 108.32L610.6 107.57L610.99 106.82L611.35 106.05L611.7 105.28L612.04 104.5L612.35 103.72L612.65 102.92L612.93 102.12L613.2 101.32L613.44 100.51L613.67 99.69L613.88 98.86L614.07 98.03L614.25 97.2L614.41 96.36L614.54 95.52L614.66 94.67L614.77 93.81L614.85 92.96L614.92 92.1L614.96 91.23L614.99 90.36L615 89.49L614.99 88.62L614.96 87.75L614.92 86.89L614.85 86.03L614.77 85.17L614.66 84.32L614.54 83.47L614.41 82.63L614.25 81.79L614.07 80.95L613.88 80.12L613.67 79.3L613.44 78.48L613.19 77.67L612.93 76.86L612.65 76.06L612.35 75.27L612.04 74.48L611.7 73.7L611.35 72.93L610.99 72.17L610.6 71.41L610.2 70.66L609.79 69.92L609.35 69.19L608.9 68.47L608.44 67.76L607.95 67.05L607.45 66.36L606.94 65.67L606.41 65L605.86 64.33L605.3 63.67L604.72 63.03L604.13 62.4L603.52 61.77L602.93 61.2L602.34 60.64L601.74 60.1L601.13 59.57L600.51 59.05L599.88 58.55L599.24 58.06L598.59 57.59L597.93 57.13L597.27 56.68L596.6 56.25L595.92 55.83L595.23 55.43L594.54 55.04L593.83 54.66L593.12 54.31L592.41 53.96L591.68 53.63L590.96 53.32L590.22 53.02L589.48 52.73L588.73 52.47L587.98 52.21L587.22 51.97L586.46 51.75L585.69 51.54L584.91 51.35L584.13 51.17L583.35 51.01L582.56 50.87L581.77 50.74L580.97 50.63L580.17 50.53L579.37 50.45L578.56 50.39L577.76 50.34L577.24 52.57L576.78 54.81Z" id="d44KChCl9e"></path><path d="M499.98 307.5C496.69 307.5 493.47 308.84 491.14 311.16C488.82 313.49 487.48 316.71 487.48 320C487.48 323.29 488.82 326.51 491.14 328.84C493.47 331.16 496.69 332.5 499.98 332.5C503.27 332.5 506.49 331.16 508.81 328.84C511.14 326.51 512.48 323.29 512.48 320C512.48 316.71 511.14 313.49 508.81 311.16C506.49 308.84 503.27 307.5 499.98 307.5Z" id="bfA5IFvIY"></path><path d="M244.71 60.02C241.42 60.02 238.2 61.36 235.88 63.68C233.55 66.01 232.21 69.23 232.21 72.52C232.21 75.81 233.55 79.03 235.88 81.36C238.2 83.68 241.42 85.02 244.71 85.02C248 85.02 251.22 83.68 253.55 81.36C255.87 79.03 257.21 75.81 257.21 72.52C257.21 69.23 255.87 66.01 253.55 63.68C251.22 61.36 248 60.02 244.71 60.02Z" id="a15sIHmgzz"></path><path d="M501.01 0.07L501.52 0.12L502.02 0.19L502.51 0.28L502.99 0.39L503.47 0.52L503.94 0.66L504.4 0.83L504.85 1.01L505.3 1.21L505.73 1.42L506.16 1.65L506.57 1.9L506.98 2.16L507.37 2.44L507.75 2.73L508.12 3.03L508.48 3.35L508.83 3.69L509.16 4.03L509.48 4.39L509.79 4.76L510.08 5.14L510.35 5.54L510.62 5.94L510.86 6.35L511.09 6.78L511.31 7.21L511.51 7.66L511.69 8.11L511.85 8.57L512 9.04L512.13 9.52L512.23 10L512.33 10.5L512.4 10.99L512.45 11.5L512.48 12.01L512.49 12.52L512.49 37.79L512.48 38.31L512.45 38.82L512.4 39.32L512.33 39.82L512.23 40.31L512.13 40.8L512 41.27L511.85 41.74L511.69 42.21L511.51 42.66L511.31 43.1L511.09 43.54L510.86 43.96L510.62 44.38L510.35 44.78L510.08 45.18L509.79 45.56L509.48 45.93L509.16 46.29L508.83 46.63L508.48 46.96L508.12 47.28L507.75 47.59L507.37 47.88L506.98 48.16L506.57 48.42L506.16 48.67L505.73 48.9L505.3 49.11L504.85 49.31L504.4 49.49L503.94 49.66L503.47 49.8L502.99 49.93L502.51 50.04L502.02 50.13L501.52 50.2L501.02 50.25L500.51 50.28L499.99 50.29L499.47 50.28L498.97 50.25L498.46 50.2L497.96 50.13L497.47 50.04L496.99 49.93L496.51 49.8L496.04 49.66L495.58 49.49L495.13 49.31L494.68 49.11L494.25 48.9L493.82 48.67L493.41 48.42L493 48.16L492.61 47.88L492.23 47.59L491.86 47.28L491.5 46.96L491.15 46.63L490.82 46.29L490.5 45.93L490.19 45.56L489.9 45.18L489.63 44.78L489.36 44.38L489.12 43.96L488.89 43.54L488.67 43.1L488.47 42.66L488.29 42.21L488.13 41.74L487.98 41.28L487.85 40.8L487.75 40.31L487.65 39.82L487.58 39.32L487.53 38.82L487.5 38.31L487.49 37.79L487.49 25.02L25 25.02L25 60.02L192.14 60.02L192.65 60.03L193.16 60.06L193.67 60.11L194.16 60.18L194.66 60.27L195.14 60.38L195.62 60.51L196.09 60.66L196.55 60.82L197 61L197.45 61.2L197.88 61.42L198.31 61.65L198.72 61.89L199.12 62.15L199.52 62.43L199.9 62.72L200.27 63.03L200.63 63.35L200.97 63.68L201.31 64.03L201.63 64.38L201.93 64.76L202.22 65.14L202.5 65.53L202.76 65.94L203.01 66.35L203.24 66.78L203.46 67.21L203.65 67.65L203.84 68.11L204 68.57L204.14 69.04L204.27 69.52L204.38 70L204.47 70.49L204.54 70.99L204.59 71.49L204.63 72L204.64 72.52L204.63 73.03L204.59 73.54L204.54 74.05L204.47 74.55L204.38 75.04L204.27 75.52L204.15 76L204 76.47L203.84 76.93L203.65 77.38L203.46 77.83L203.24 78.26L203.01 78.69L202.76 79.1L202.5 79.51L202.22 79.9L201.93 80.28L201.63 80.65L201.31 81.01L200.98 81.36L200.63 81.69L200.27 82.01L199.9 82.31L199.52 82.61L199.13 82.88L198.72 83.14L198.31 83.39L197.88 83.62L197.45 83.84L197 84.04L196.55 84.22L196.09 84.38L195.62 84.53L195.14 84.65L194.66 84.76L194.16 84.85L193.67 84.92L193.16 84.98L192.65 85.01L192.14 85.02L25 85.02L25 557.48L25.05 559.85L25.19 562.19L25.43 564.51L25.75 566.79L26.17 569.05L26.67 571.28L27.26 573.48L27.93 575.63L28.69 577.76L29.52 579.84L30.44 581.88L31.43 583.88L32.49 585.84L33.63 587.74L34.83 589.6L36.11 591.41L37.45 593.17L38.86 594.88L40.33 596.53L41.86 598.12L43.45 599.65L45.1 601.12L46.8 602.53L48.56 603.87L50.37 605.14L52.23 606.35L54.14 607.49L56.1 608.55L58.09 609.54L60.14 610.45L62.22 611.29L64.34 612.04L66.5 612.71L68.69 613.3L70.92 613.81L73.18 614.22L75.47 614.55L77.79 614.79L80.13 614.93L82.5 614.98L84.86 614.93L87.2 614.79L89.52 614.55L91.81 614.22L94.07 613.81L96.3 613.3L98.49 612.71L100.65 612.04L102.77 611.29L104.85 610.45L106.9 609.54L108.89 608.55L110.85 607.49L112.76 606.35L114.62 605.14L116.43 603.87L118.19 602.53L119.89 601.12L121.54 599.65L123.13 598.12L124.66 596.53L126.13 594.88L127.54 593.17L128.88 591.41L130.16 589.6L131.36 587.74L132.5 585.84L133.56 583.88L134.55 581.88L135.46 579.84L136.3 577.76L137.05 575.63L137.73 573.48L138.32 571.28L138.82 569.05L139.24 566.79L139.56 564.51L139.8 562.19L139.94 559.85L139.99 557.48L140 556.97L140.03 556.46L140.08 555.95L140.15 555.45L140.24 554.96L140.35 554.48L140.48 554L140.63 553.53L140.79 553.07L140.97 552.62L141.17 552.17L141.39 551.74L141.62 551.31L141.86 550.9L142.12 550.49L142.4 550.1L142.69 549.72L143 549.35L143.32 548.99L143.65 548.64L144 548.31L144.35 547.99L144.73 547.69L145.11 547.39L145.5 547.12L145.91 546.86L146.32 546.61L146.75 546.38L147.18 546.16L147.62 545.96L148.08 545.78L148.54 545.62L149.01 545.47L149.49 545.35L149.97 545.24L150.46 545.15L150.96 545.08L151.46 545.02L151.97 544.99L152.49 544.98L487.48 544.98L487.48 371.25L487.49 370.73L487.52 370.22L487.57 369.72L487.64 369.22L487.73 368.73L487.84 368.24L487.97 367.77L488.12 367.3L488.28 366.83L488.46 366.38L488.66 365.94L488.87 365.5L489.1 365.08L489.35 364.66L489.61 364.26L489.89 363.86L490.18 363.48L490.49 363.11L490.81 362.75L491.14 362.41L491.49 362.08L491.84 361.76L492.21 361.45L492.6 361.16L492.99 360.88L493.39 360.62L493.81 360.37L494.23 360.14L494.67 359.93L495.11 359.73L495.57 359.55L496.03 359.38L496.5 359.24L496.97 359.11L497.46 359L497.95 358.91L498.45 358.84L498.95 358.79L499.46 358.76L499.98 358.75L500.49 358.76L501 358.79L501.51 358.84L502 358.91L502.5 359L502.98 359.11L503.46 359.24L503.93 359.38L504.39 359.55L504.84 359.73L505.29 359.93L505.72 360.14L506.15 360.37L506.56 360.62L506.96 360.88L507.36 361.16L507.74 361.45L508.11 361.76L508.47 362.08L508.81 362.41L509.15 362.75L509.47 363.11L509.77 363.48L510.06 363.86L510.34 364.26L510.6 364.66L510.85 365.08L511.08 365.5L511.3 365.94L511.49 366.38L511.68 366.83L511.84 367.3L511.98 367.76L512.11 368.24L512.22 368.73L512.31 369.22L512.38 369.72L512.43 370.22L512.47 370.73L512.48 371.25L512.48 544.98L577.23 544.98L577.75 544.99L578.26 545.02L578.76 545.08L579.26 545.15L579.75 545.24L580.24 545.35L580.71 545.47L581.18 545.62L581.65 545.78L582.1 545.96L582.54 546.16L582.98 546.38L583.4 546.61L583.82 546.86L584.22 547.12L584.62 547.39L585 547.69L585.37 547.99L585.73 548.31L586.07 548.64L586.4 548.99L586.72 549.35L587.03 549.72L587.32 550.1L587.6 550.49L587.86 550.9L588.11 551.31L588.34 551.74L588.55 552.17L588.75 552.62L588.93 553.07L589.1 553.53L589.24 554L589.37 554.48L589.48 554.96L589.57 555.45L589.64 555.95L589.69 556.46L589.72 556.97L589.73 557.48L589.66 560.88L589.46 564.24L589.12 567.56L588.65 570.85L588.05 574.09L587.33 577.28L586.49 580.43L585.52 583.53L584.44 586.57L583.24 589.56L581.93 592.49L580.51 595.36L578.99 598.17L577.36 600.9L575.62 603.57L573.8 606.17L571.87 608.69L569.85 611.14L567.74 613.5L565.54 615.79L563.26 617.98L560.9 620.09L558.45 622.11L555.93 624.04L553.33 625.87L550.66 627.6L547.92 629.23L545.12 630.75L542.25 632.17L539.32 633.48L536.33 634.68L533.29 635.76L530.19 636.73L527.04 637.57L523.84 638.3L520.6 638.89L517.32 639.36L513.99 639.7L510.63 639.91L507.24 639.98L79.93 639.98L79.89 639.98L79.85 639.98L79.81 639.98L79.77 639.98L79.72 639.97L79.68 639.97L79.64 639.97L79.6 639.97L79.56 639.97L79.52 639.97L79.48 639.97L79.44 639.97L79.4 639.96L79.35 639.96L79.31 639.96L79.27 639.96L79.23 639.96L79.19 639.95L79.15 639.95L79.11 639.95L79.07 639.95L79.03 639.94L78.99 639.94L78.95 639.94L78.91 639.93L78.87 639.93L78.83 639.93L78.79 639.92L78.74 639.92L78.7 639.92L78.66 639.91L78.62 639.91L78.58 639.9L78.54 639.9L78.5 639.9L78.46 639.89L78.42 639.89L78.38 639.88L78.34 639.88L78.3 639.87L75.05 639.64L71.84 639.29L68.66 638.82L65.53 638.22L62.44 637.51L59.39 636.68L56.39 635.74L53.44 634.69L50.54 633.54L47.7 632.27L44.91 630.91L42.18 629.44L39.52 627.88L36.92 626.22L34.39 624.46L31.93 622.62L29.54 620.69L27.22 618.67L24.98 616.57L22.82 614.39L20.74 612.13L18.75 609.79L16.84 607.38L15.02 604.9L13.29 602.35L11.66 599.73L10.12 597.05L8.68 594.31L7.35 591.5L6.11 588.65L4.98 585.73L3.96 582.77L3.05 579.75L2.26 576.69L1.58 573.59L1.02 570.44L0.58 567.26L0.26 564.03L0.06 560.77L0 557.48L0 12.52L0.01 12.01L0.04 11.5L0.09 10.99L0.16 10.5L0.25 10L0.36 9.52L0.49 9.04L0.64 8.57L0.8 8.11L0.98 7.66L1.18 7.21L1.4 6.78L1.63 6.35L1.87 5.94L2.14 5.54L2.41 5.14L2.7 4.76L3.01 4.39L3.33 4.03L3.66 3.69L4.01 3.35L4.37 3.03L4.74 2.73L5.12 2.44L5.51 2.16L5.92 1.9L6.33 1.65L6.76 1.42L7.19 1.21L7.63 1.01L8.09 0.83L8.55 0.66L9.02 0.52L9.5 0.39L9.98 0.28L10.47 0.19L10.97 0.12L11.47 0.07L11.98 0.04L12.5 0.02L499.99 0.02L500.51 0.04L501.01 0.07ZM163.83 571.28L163.6 572.57L163.36 573.86L163.09 575.13L162.8 576.4L162.49 577.67L162.16 578.92L161.82 580.17L161.45 581.41L161.06 582.64L160.66 583.87L160.24 585.08L159.8 586.29L159.34 587.48L158.86 588.67L158.37 589.85L157.86 591.02L157.33 592.18L156.78 593.33L156.22 594.47L155.64 595.61L155.04 596.73L154.43 597.84L153.79 598.94L153.15 600.03L152.48 601.11L151.8 602.17L151.11 603.23L150.4 604.27L149.67 605.31L148.93 606.33L148.17 607.34L147.4 608.34L146.62 609.33L145.81 610.3L145 611.26L144.17 612.21L143.32 613.15L142.47 614.07L141.6 614.98L507.24 614.98L509.29 614.94L511.32 614.83L513.33 614.66L515.32 614.41L517.29 614.1L519.23 613.72L521.15 613.27L523.05 612.77L524.92 612.2L526.77 611.56L528.58 610.87L530.37 610.12L532.12 609.31L533.85 608.44L535.53 607.52L537.19 606.54L538.81 605.51L540.39 604.43L541.93 603.3L543.44 602.12L544.9 600.89L546.32 599.62L547.7 598.29L549.03 596.93L550.32 595.52L551.56 594.07L552.75 592.57L553.9 591.04L554.99 589.47L556.04 587.86L557.03 586.21L557.96 584.53L558.84 582.82L559.67 581.07L560.44 579.3L561.14 577.49L561.79 575.65L562.38 573.79L562.9 571.9L563.37 569.98L164.04 569.98L163.83 571.28Z" id="a6ixdwlbm"></path></defs><g><g><g><use xlink:href="#cdgZHToAt" opacity="1" fill="#ffffff" fill-opacity="1"></use><g><use xlink:href="#cdgZHToAt" opacity="1" fill-opacity="0" stroke="#ffffff" stroke-width="1" stroke-opacity="1"></use></g></g><g><use xlink:href="#a1dFNSZ3th" opacity="1" fill="#dcc569" fill-opacity="1"></use><g><use xlink:href="#a1dFNSZ3th" opacity="1" fill-opacity="0" stroke="#000000" stroke-width="1" stroke-opacity="1"></use></g></g><g><use xlink:href="#jOA44XzMm" opacity="1" fill="#69b5dc" fill-opacity="1"></use><g><use xlink:href="#jOA44XzMm" opacity="1" fill-opacity="0" stroke="#000000" stroke-width="1" stroke-opacity="1"></use></g></g><g><use xlink:href="#anGwGPUqH" opacity="1" fill="#a5dc69" fill-opacity="1"></use><g><use xlink:href="#anGwGPUqH" opacity="1" fill-opacity="0" stroke="#000000" stroke-width="1" stroke-opacity="1"></use></g></g><g><use xlink:href="#j3PqrIuNpa" opacity="1" fill="#b17429" fill-opacity="1"></use><g><use xlink:href="#j3PqrIuNpa" opacity="1" fill-opacity="0" stroke="#000000" stroke-width="1" stroke-opacity="1"></use></g></g><g><use xlink:href="#a4h3NC5MN" opacity="1" fill="#ff5a5a" fill-opacity="1"></use><g><use xlink:href="#a4h3NC5MN" opacity="1" fill-opacity="0" stroke="#000000" stroke-width="1" stroke-opacity="1"></use></g></g><g><use xlink:href="#d44KChCl9e" opacity="1" fill="#000000" fill-opacity="1"></use><g><use xlink:href="#d44KChCl9e" opacity="1" fill-opacity="0" stroke="#000000" stroke-width="1" stroke-opacity="0"></use></g></g><g><use xlink:href="#bfA5IFvIY" opacity="1" fill="#000000" fill-opacity="1"></use><g><use xlink:href="#bfA5IFvIY" opacity="1" fill-opacity="0" stroke="#000000" stroke-width="1" stroke-opacity="0"></use></g></g><g><use xlink:href="#a15sIHmgzz" opacity="1" fill="#000000" fill-opacity="1"></use><g><use xlink:href="#a15sIHmgzz" opacity="1" fill-opacity="0" stroke="#000000" stroke-width="1" stroke-opacity="0"></use></g></g><g><use xlink:href="#a6ixdwlbm" opacity="1" fill="#000000" fill-opacity="1"></use><g><use xlink:href="#a6ixdwlbm" opacity="1" fill-opacity="0" stroke="#000000" stroke-width="1" stroke-opacity="0"></use></g></g></g></g></svg>