<?xml version="1.0" encoding="UTF-8" standalone="no"?>
<!DOCTYPE svg PUBLIC "-//W3C//DTD SVG 1.1//EN" "http://www.w3.org/Graphics/SVG/1.1/DTD/svg11.dtd">
<svg version="1.1" xmlns="http://www.w3.org/2000/svg" xmlns:xlink="http://www.w3.org/1999/xlink" preserveAspectRatio="xMidYMid meet" viewBox="0 0 640 640" width="640" height="640"><defs><path d="M180.55 360.38C165.3 405.13 167.8 445.29 157.55 469.26C147.3 493.23 143.55 452.76 139.55 456.26C135.55 459.76 128.3 475.01 136.55 483.26C144.8 491.51 157.19 512.96 172.55 489.26C187.92 465.57 175 435.69 198 388.5C213.33 357.04 254.04 307.37 264.55 300.5C275.06 293.63 286.14 282.57 320.06 281.01C335.66 280.29 360.06 286.51 372.46 298.38C384.86 310.26 418.04 334.59 441.67 388.5C465.3 442.41 459.81 477.57 467.12 489.26C482.89 514.48 500.55 489.51 504.56 483.26C508.57 477.01 505.19 459.76 499.17 456.26C493.14 452.76 494.95 493.87 483.45 469.26C471.95 444.65 470.6 390.85 458 356.41C449.6 333.44 436.53 311.4 418.77 290.26C407.23 275.69 390.07 263.59 367.28 253.97C333.1 239.55 289.62 248.57 275.71 253.97C245.9 265.54 229.34 279.66 218.55 290.26C207.76 300.86 190.72 330.55 180.55 360.38Z" id="b2tdccrOK"></path></defs><g><g><g><use xlink:href="#b2tdccrOK" opacity="1" fill="#ba7400" fill-opacity="1"></use><g><use xlink:href="#b2tdccrOK" opacity="1" fill-opacity="0" stroke="#000000" stroke-width="14" stroke-opacity="1"></use></g></g></g></g></svg>