<?xml version="1.0" encoding="UTF-8" standalone="no"?>
<!DOCTYPE svg PUBLIC "-//W3C//DTD SVG 1.1//EN" "http://www.w3.org/Graphics/SVG/1.1/DTD/svg11.dtd">
<svg version="1.1" xmlns="http://www.w3.org/2000/svg" xmlns:xlink="http://www.w3.org/1999/xlink" preserveAspectRatio="xMidYMid meet" viewBox="0 0 640 640" width="640" height="640"><defs><path d="M259.06 604.82C271.26 604.82 368.86 604.82 381.06 604.82C374.93 583.02 366.78 564.53 356.61 549.37C352.2 542.78 347.31 537.19 341.95 532.6C329.53 521.94 311.04 522.44 299.22 533.76C294.85 537.93 290.58 543.14 286.41 549.37C276.24 564.53 267.12 583.02 259.06 604.82Z" id="a2eZy82fkL"></path><path d="M259.06 604.82C271.26 604.82 368.86 604.82 381.06 604.82C374.93 583.02 366.78 564.53 356.61 549.37C352.2 542.78 347.31 537.19 341.95 532.6C329.53 521.94 311.04 522.44 299.22 533.76C294.85 537.93 290.58 543.14 286.41 549.37C276.24 564.53 267.12 583.02 259.06 604.82Z" id="a68SNdXWd8"></path></defs><g><g><g><use xlink:href="#a2eZy82fkL" opacity="1" fill="#42b0db" fill-opacity="1"></use><g><use xlink:href="#a2eZy82fkL" opacity="1" fill-opacity="0" stroke="#000000" stroke-width="1" stroke-opacity="0"></use></g></g><g><use xlink:href="#a68SNdXWd8" opacity="1" fill="#000000" fill-opacity="0"></use><g><use xlink:href="#a68SNdXWd8" opacity="1" fill-opacity="0" stroke="#000000" stroke-width="13" stroke-opacity="1"></use></g></g></g></g></svg>