<?xml version="1.0" encoding="UTF-8" standalone="no"?>
<!DOCTYPE svg PUBLIC "-//W3C//DTD SVG 1.1//EN" "http://www.w3.org/Graphics/SVG/1.1/DTD/svg11.dtd">
<svg version="1.1" xmlns="http://www.w3.org/2000/svg" xmlns:xlink="http://www.w3.org/1999/xlink" preserveAspectRatio="xMidYMid meet" viewBox="0 0 640 640" width="640" height="640"><defs><path d="M599 437.5L437 606.5L192 606.5L26 437.5L26 195.5L192 30.5L437 30.5L599 195.5L599 437.5Z" id="ddyVGWCuo"></path><path d="M320 518.5C245.49 518.5 185 458.01 185 383.5C185 308.99 245.49 248.5 320 248.5C394.51 248.5 455 308.99 455 383.5C455 458.01 394.51 518.5 320 518.5Z" id="bOD7PVPaz"></path><path d="M259.06 604.82C271.26 604.82 368.86 604.82 381.06 604.82C374.93 583.02 366.78 564.53 356.61 549.37C352.2 542.78 347.31 537.19 341.95 532.6C329.53 521.94 311.04 522.44 299.22 533.76C294.85 537.93 290.58 543.14 286.41 549.37C276.24 564.53 267.12 583.02 259.06 604.82Z" id="b8q8IKPoa"></path></defs><g><g><g><use xlink:href="#ddyVGWCuo" opacity="1" fill="#c2c2c2" fill-opacity="1"></use><g><use xlink:href="#ddyVGWCuo" opacity="1" fill-opacity="0" stroke="#2a2a2a" stroke-width="13" stroke-opacity="1"></use></g></g><g><use xlink:href="#bOD7PVPaz" opacity="1" fill="#808080" fill-opacity="1"></use><g><use xlink:href="#bOD7PVPaz" opacity="1" fill-opacity="0" stroke="#2a2a2a" stroke-width="13" stroke-opacity="1"></use></g></g><g><use xlink:href="#b8q8IKPoa" opacity="1" fill="#535353" fill-opacity="1"></use><g><use xlink:href="#b8q8IKPoa" opacity="1" fill-opacity="0" stroke="#2a2a2a" stroke-width="13" stroke-opacity="1"></use></g></g></g></g></svg>